<svg xmlns="http://www.w3.org/2000/svg" width="20" height="20.001" viewBox="0 0 20 20.001">
  <path id="Icon" d="M528.939,807.995a5.927,5.927,0,0,1,6.007,5.406,5.615,5.615,0,0,1-4.81,5.842c-1.92.277-2.589,1.671-3.142,2.671-.558-1-1.231-2.392-3.155-2.67a5.632,5.632,0,0,1-4.834-5.84c.132-3.081,2.923-5.4,6.491-5.4H529m.037-2H525.5c-4.684,0-8.31,3.171-8.489,7.319a7.65,7.65,0,0,0,6.548,7.906,1.745,1.745,0,0,1,1.262.888L527,826l2.182-3.887a1.752,1.752,0,0,1,1.263-.889,7.65,7.65,0,0,0,6.548-7.906A7.861,7.861,0,0,0,529.037,806" transform="translate(-517 -805.999)" fill="#cecfd2"/>
</svg>
