<svg xmlns="http://www.w3.org/2000/svg" width="26.677" height="22.559" viewBox="0 0 26.677 22.559">
  <g id="Group_260" data-name="Group 260" transform="translate(-434.95 -121.452)">
    <path id="man" d="M18.173,19.3l-.454-1.981a2.8,2.8,0,0,0-1.731-2.046l-3.333-1.21c-.813-.369-1.185-1.8-1.265-2.337A3.528,3.528,0,0,0,12.5,9.492a.721.721,0,0,1,.092-.425.391.391,0,0,0,.26-.248,6.628,6.628,0,0,0,.406-1.8.431.431,0,0,0-.011-.1,1.071,1.071,0,0,0-.367-.6V4.127a2.518,2.518,0,0,0-.765-2.192C12.043,1.3,11.414,0,9.1,0A4.139,4.139,0,0,0,5.309,4.127V6.315a1.071,1.071,0,0,0-.367.6.431.431,0,0,0-.011.1,6.628,6.628,0,0,0,.406,1.8.336.336,0,0,0,.227.237c.042.023.122.143.122.435A3.526,3.526,0,0,0,6.8,11.728c-.08.541-.449,1.966-1.239,2.326L2.2,15.271a2.8,2.8,0,0,0-1.73,2.045L.019,19.3a.417.417,0,0,0,.274.5.348.348,0,0,0,.093.013h17.42a.4.4,0,0,0,.379-.413A.45.45,0,0,0,18.173,19.3Z" transform="translate(442.942 121.952)" fill="none" stroke="#707070" stroke-width="1"/>
    <path id="man-2" data-name="man" d="M22.053,21.488,21.5,19.282A3.2,3.2,0,0,0,19.4,17l-4.044-1.347c-.986-.411-1.438-2-1.535-2.6a3.822,3.822,0,0,0,1.351-2.484.749.749,0,0,1,.111-.473.459.459,0,0,0,.315-.276,6.87,6.87,0,0,0,.493-2.008.442.442,0,0,0-.014-.111,1.182,1.182,0,0,0-.446-.669V4.6a2.69,2.69,0,0,0-.928-2.44C14.613,1.442,13.849,0,11.037,0a4.792,4.792,0,0,0-4.6,4.6V7.032A1.182,1.182,0,0,0,6,7.7a.442.442,0,0,0-.014.111,6.87,6.87,0,0,0,.493,2.009.391.391,0,0,0,.276.264c.051.026.148.159.148.484a3.821,3.821,0,0,0,1.358,2.489c-.1.6-.545,2.189-1.5,2.59L2.673,17a3.2,3.2,0,0,0-2.1,2.277L.022,21.487a.46.46,0,0,0,.445.573h21.14a.459.459,0,0,0,.446-.571Z" transform="translate(434.942 121.952)" fill="#8d8d8d"/>
  </g>
</svg>
