<svg xmlns="http://www.w3.org/2000/svg" width="20.001" height="16" viewBox="0 0 20.001 16">
  <path id="Icon" d="M400.387,810.309a.5.5,0,0,1-.393.182.492.492,0,0,1-.383-.176c-3.543-4.333-9.8-2.175-9.607,3.157.153,4.243,3.161,6.347,6.7,9.331a5.148,5.148,0,0,0,6.609-.008c3.5-2.98,6.473-5.069,6.676-9.2.27-5.451-6.071-7.64-9.605-3.289m1.606,11.039a3.062,3.062,0,0,1-1.983.723,3.1,3.1,0,0,1-2.006-.737c-3.594-3.028-5.882-4.634-6-7.929-.125-3.487,3.7-4.761,6.037-1.9a2.556,2.556,0,0,0,3.921-.011c2.291-2.819,6.213-1.618,6.034,2.009-.16,3.227-2.536,4.893-6,7.841" transform="translate(-390 -807.999)" fill="#cecfd2"/>
</svg>
