<svg xmlns="http://www.w3.org/2000/svg" width="38.753" height="38.729" viewBox="0 0 38.753 38.729">
  <g id="round-color" transform="translate(-0.004 0.004)">
    <path id="Path_1" data-name="Path 1" d="M30,27.79" transform="translate(-10.62 -8.41)" fill="none" stroke="#00d8b9" stroke-miterlimit="10" stroke-width="1"/>
    <path id="Path_2" data-name="Path 2" d="M11.18,28.45a18.67,18.67,0,0,1,4.73-13.16,3.41,3.41,0,0,1-.38-.38,19.23,19.23,0,0,0-4.33,8.17,19.43,19.43,0,0,0-.56,5.48,3,3,0,0,1,.54-.11Z" transform="translate(-10.62 -8.41)" fill="#00d8b9"/>
    <path id="Path_3" data-name="Path 3" d="M12.64,35.06l-.41.1a.39.39,0,0,1-.11.06,19.35,19.35,0,0,0,12.24,11.1,1.17,1.17,0,0,1,.12-.52A18.8,18.8,0,0,1,12.64,35.06Z" transform="translate(-10.62 -8.41)" fill="#00d8b9"/>
    <path id="Path_4" data-name="Path 4" d="M40,43.75a18.83,18.83,0,0,1-11.9,2.76,1.35,1.35,0,0,1,0,.53A19.3,19.3,0,0,0,40.24,44.2a1.2,1.2,0,0,1-.24-.45Z" transform="translate(-10.62 -8.41)" fill="#00d8b9"/>
    <path id="Path_5" data-name="Path 5" d="M39.32,10.82A19.12,19.12,0,0,0,22.61,9.9a4.34,4.34,0,0,1,.2.5A18.55,18.55,0,0,1,39,11.27a1.48,1.48,0,0,1,.32-.45Z" transform="translate(-10.62 -8.41)" fill="#00d8b9"/>
    <path id="Path_6" data-name="Path 6" d="M48.27,32.37c-.12.47-.26.92-.42,1.36a1.53,1.53,0,0,1,.45.19h.05a14.462,14.462,0,0,0,.45-1.44,19.34,19.34,0,0,0-4-17.18,3.47,3.47,0,0,1-.35.43A18.78,18.78,0,0,1,48.27,32.37Z" transform="translate(-10.62 -8.41)" fill="#00d8b9"/>
    <path id="Path_7" data-name="Path 7" d="M45.44,38.55a18.82,18.82,0,0,1-3.16,3.5,1.06,1.06,0,0,1,.37.39,19.57,19.57,0,0,0,3.25-3.6,1.44,1.44,0,0,1-.46-.29Z" transform="translate(-10.62 -8.41)" fill="#00d8b9"/>
  </g>
</svg>
