<svg xmlns="http://www.w3.org/2000/svg" width="18" height="18" viewBox="0 0 18 18">
  <path id="Icon" d="M696.547,810.322a.5.5,0,0,1,.859.341l.038,1.366a1.011,1.011,0,0,0,1.028.971h-.222c.552,0,.75-.476.75-1.028V808a2.006,2.006,0,0,0-2-2h-3.517c-.553,0-1.483.425-1.483.977a1.228,1.228,0,0,0,1.2,1.032l1.534.041a.5.5,0,0,1,.343.857l-5.787,5.816a1,1,0,0,0,.015,1.414,1.017,1.017,0,0,0,1.428,0ZM695,817a1,1,0,0,1,2,0v5a2,2,0,0,1-2,2H683a2,2,0,0,1-2-2V810a2,2,0,0,1,2-2h5a1,1,0,0,1,0,2h-4a1,1,0,0,0-1,1v10a1,1,0,0,0,1,1h10a1,1,0,0,0,1-1Z" transform="translate(-681 -806)" fill="#cecfd2"/>
</svg>
