<svg id="logo-2" xmlns="http://www.w3.org/2000/svg" width="123.749" height="65" viewBox="0 0 123.749 65">
  <rect id="Rectangle_7" data-name="Rectangle 7" width="123.749" height="65" fill="#fff"/>
  <rect id="Rectangle_8" data-name="Rectangle 8" width="118.616" height="62.834" transform="translate(4.078 0.492)" fill="#fff"/>
  <path id="Path_87" data-name="Path 87" d="M69.683,0h57.656c.527,0,.527,0,.527.527V18.984c0,.352-.105.457-.422.387H12.027c-.527,0-.527,0-.527-.527V.457c.035-.352.141-.457.527-.457Z" transform="translate(-7.457)" fill="#fd0"/>
  <path id="Path_88" data-name="Path 88" d="M49.979,91.017c1.266-.281,2.531-.527,3.762-.809,2.777-.6,5.555-1.23,8.332-1.863.316-.07.387-.035.387.316v7.98c0,.281-.105.387-.352.422l-5.1,1.16c-.07.176-.211.176-.387.211a2.267,2.267,0,0,0-.7.105c-.035,0-.07.035-.105.035a.7.7,0,0,0-.387.105,5.457,5.457,0,0,1-.738.141,3.069,3.069,0,0,0-.773.176c-1.934.387-3.832.844-5.766,1.266l-8.719,1.9-2.5.527a2.148,2.148,0,0,0-.457.105c-1.477.316-2.918.633-4.395.984-.387.07-.773.141-1.16.246-.035,0-.07.035-.141.035a10.846,10.846,0,0,1-1.512,0,.267.267,0,0,1-.141-.035,1.758,1.758,0,0,0-.422-.07,3.417,3.417,0,0,1-2.32-1.652,4.155,4.155,0,0,1-.492-1.934.773.773,0,0,1,.035-.281L26,99.033a3.228,3.228,0,0,1,.738-1.828,4.307,4.307,0,0,1,2.6-1.652c1.793-.387,3.551-.773,5.344-1.2.035,0,.07-.035.141-.035a4.979,4.979,0,0,0,.7-.141c1.477-.316,2.918-.633,4.359-.984a2.418,2.418,0,0,0,.457-.07c.246-.07.492-.105.738-.176a1.5,1.5,0,0,0,.387-.07c1.617-.352,3.234-.7,4.852-1.09,1.055-.246,2.145-.457,3.2-.7C49.733,90.947,49.839,90.947,49.979,91.017Z" transform="translate(-16.792 -57.267)" fill="#62bc46"/>
  <path id="Path_89" data-name="Path 89" d="M67.591,71.212l-4.324.984-2.355.527c-.07.176-.281.176-.422.211-1.477.246-2.953.633-4.43.949-.387.07-.773.246-1.2.316a1.712,1.712,0,0,0-.422.035l-.105.035c-.457.07-.879.176-1.336.281-.035,0-.07.035-.105.035a1.262,1.262,0,0,0-.387.07,1.083,1.083,0,0,1-.457.105,1.315,1.315,0,0,0-.633.176,10.584,10.584,0,0,1-1.441.316,2.267,2.267,0,0,0-.7.105c-.035,0-.07.035-.105.035a.7.7,0,0,0-.387.105,1.888,1.888,0,0,1-.738.176H47.9a5.112,5.112,0,0,1-1.934-.035A3.638,3.638,0,0,1,43.193,73.5a1.958,1.958,0,0,1-.246-1.336l.07-1.09a1.308,1.308,0,0,1,.176-.809A4.711,4.711,0,0,1,46.005,67.7c2.285-.633,4.605-1.2,6.891-1.723a.387.387,0,0,1,.281,0c1.371-.281,2.777-.633,4.184-.949,2.637-.6,5.273-1.23,7.91-1.723a8.866,8.866,0,0,0,2.145-.387c.773-.176,1.512-.281,2.285-.457,1.09-.281,2.215-.492,3.3-.7.352-.07.422,0,.422.352v7.348a.422.422,0,0,1-.352.457H73.04c-1.687.352-3.34.773-5.027,1.09A.8.8,0,0,0,67.591,71.212Z" transform="translate(-27.83 -40.028)" fill="#62bc46"/>
  <path id="Path_90" data-name="Path 90" d="M46.451,126.382l.035-1.125a1.625,1.625,0,0,1,.246-1.055,4.219,4.219,0,0,1,2.531-2.426c.105-.035.211-.07.352-.105a3.016,3.016,0,0,0,.6-.105c.035,0,.07-.035.105-.035a1.054,1.054,0,0,0,.352-.07l.105-.035a.7.7,0,0,0,.387-.105c1.441-.352,2.883-.6,4.289-.914.7-.176,1.406-.316,2.145-.457l9.457-2a1.758,1.758,0,0,1,.422-.07l.105-.035a1.494,1.494,0,0,0,.387-.07c.035,0,.07-.035.105-.035.457-.105.949-.176,1.406-.316.316-.035.563-.211.879-.105l.984-.176a7.066,7.066,0,0,0,1.9-.422h0a12.618,12.618,0,0,0,2-.387c.457-.07.492-.105.492.422v7.066a.485.485,0,0,1-.422.563h-.07a8.5,8.5,0,0,0-1.266.352h0a15.906,15.906,0,0,0-2.566.563c-1.441.316-2.918.668-4.359.984a20.388,20.388,0,0,0-2.531.6c-.246.281-.633.176-.949.316a4.149,4.149,0,0,0-.7.141c-1.687.352-3.375.738-5.062,1.125-.984.211-2,.422-2.988.7-.141,0-.246.035-.352.035a4.977,4.977,0,0,0-.7.141l-.105.035a.7.7,0,0,0-.387.105,2.134,2.134,0,0,1-.633.176,5.976,5.976,0,0,0-1.09.211l-.105.035a2.374,2.374,0,0,0-.492.07,3.871,3.871,0,0,1-4.359-2.988.608.608,0,0,1-.141-.6Z" transform="translate(-30.103 -75.405)" fill="#62bc46"/>
  <path id="Path_91" data-name="Path 91" d="M70.075,153.835a3.9,3.9,0,0,1-1.2-3.059v-.316a2.97,2.97,0,0,1,.457-1.617,5.977,5.977,0,0,1,1.16-1.336,3.249,3.249,0,0,1,1.02-.562,6.33,6.33,0,0,1,.773-.211c.035,0,.07-.035.105-.035a1.262,1.262,0,0,0,.387-.07,5.139,5.139,0,0,1,.7-.176,1.758,1.758,0,0,0,.422-.07l.352-.105a1.758,1.758,0,0,0,.422-.07c.457-.141.914-.176,1.336-.316a5.976,5.976,0,0,0,.773-.141c.035,0,.07-.035.105-.035a1.757,1.757,0,0,0,.422-.07,5.629,5.629,0,0,1,.738-.176,5.248,5.248,0,0,1,.738-.07c.387.176.773-.035,1.16-.105l6.434-1.406c1.125-.246,2.25-.492,3.34-.738.387-.07.457-.035.457.387v7.1c0,.352-.105.457-.457.527-1.512.316-3.059.668-4.605,1.02-1.723.387-3.48.738-5.168,1.125-2.355.527-4.676,1.055-7.031,1.512a3.22,3.22,0,0,1-2.25-.527A3.839,3.839,0,0,0,70.075,153.835Z" transform="translate(-44.657 -92.804)" fill="#62bc46"/>
  <path id="Path_92" data-name="Path 92" d="M32.018,150.027a6.8,6.8,0,0,0-.562,1.617c-2.848.633-5.66,1.3-8.508,1.934Q17.2,154.844,11.452,156c-.316.07-.352-.035-.352-.316v-7.559c0-.281.07-.422.352-.457,3.8-.844,7.594-1.652,11.355-2.5L23.58,145a7.056,7.056,0,0,0,.562,1.652,3.632,3.632,0,0,0,3.234,1.934h.668c.176-.105.352.035.527-.07h0a6.828,6.828,0,0,0,1.16-.246l.633-.176c.141-.105.316.035.422-.105h0a5.624,5.624,0,0,0,.738-.176.408.408,0,0,1,.352-.07c.176.105.352-.035.492-.07,2.391-.492,4.781-1.055,7.172-1.582.562-.105,1.125-.246,1.687-.352.176-.035.387-.176.457.105.105.352,0,.6-.352.668-.527.105-1.055.246-1.582.352l-4.43.949a6.159,6.159,0,0,0-2.074.773.274.274,0,0,0-.141.141A2.765,2.765,0,0,0,32.018,150.027Z" transform="translate(-7.198 -94.024)" fill="#007aae"/>
  <path id="Path_93" data-name="Path 93" d="M25.273,67.58a5.048,5.048,0,0,0-2.531,2.145,10.736,10.736,0,0,0-.457,1.125c-3.621.773-7.207,1.582-10.828,2.355-.352.07-.457.035-.457-.352.035-2.426,0-4.887,0-7.312,0-.316.07-.457.387-.527L27.91,61.427A3.608,3.608,0,0,1,32.3,64.17c.035.352.105.668.141,1.02a.52.52,0,0,1-.457.6h-.035c-.914.176-1.793.422-2.707.633-1.23.281-2.391.6-3.621.914A.51.51,0,0,0,25.273,67.58Z" transform="translate(-7.133 -39.771)" fill="#007aae"/>
  <path id="Path_94" data-name="Path 94" d="M159.855,91.552l-4.148,11.918c-1.336-4.078-2.672-8.051-3.973-11.988h-.07V102.8c0,.316-.07.422-.387.387a6.012,6.012,0,0,0-1.125,0c-.281.035-.352-.07-.352-.352V87.9c0-.352.07-.422.422-.422.879.035,1.793.035,2.672,0a.468.468,0,0,1,.527.352h0c.949,2.953,1.863,5.906,2.812,8.824a1.055,1.055,0,0,1,.105.316,12.451,12.451,0,0,0,.422-1.2c.949-2.637,1.863-5.309,2.812-7.945a.422.422,0,0,1,.527-.352c.738.035,1.512.035,2.25,0,.246,0,.352.035.352.316v15.047c0,.281-.105.352-.352.352-.7,0-1.371-.035-2.074,0-.316,0-.422-.07-.422-.387V91.552Z" transform="translate(-97.136 -56.712)" fill="#252223"/>
  <path id="Path_95" data-name="Path 95" d="M22.18,91.5a8.567,8.567,0,0,0,.211.914,3.3,3.3,0,0,0,2.32,2.285l.457.141a4.145,4.145,0,0,0,2.074,0h.07a3.265,3.265,0,0,0,1.3-.211c1.969-.352,3.9-.844,5.871-1.266,1.652-.352,3.27-.738,4.922-1.09h.07c.809-.141.844-.246.738.7a16.681,16.681,0,0,1-2.285.562c-1.969.422-3.9.879-5.871,1.3-.07.035-.211-.035-.246.141a.408.408,0,0,1-.352.07,8.025,8.025,0,0,0-2.074.387c-1.125.246-2.25.492-3.41.738a10.068,10.068,0,0,0-.984.246c-1.371.281-2.707.6-4.078.914a8.944,8.944,0,0,0-2.5.773,4.676,4.676,0,0,0-2,2.566.482.482,0,0,1-.281.352c-1.441.316-2.918.633-4.359.984-.773.176-.773.176-.773-.633V94.523c0-.422.141-.562.562-.668C15.113,93.082,18.629,92.273,22.18,91.5Z" transform="translate(-7.133 -59.332)" fill="#007aae"/>
  <path id="Path_96" data-name="Path 96" d="M26.328,122.358a4.566,4.566,0,0,0-2.812,3.41l-10.793,2.391-1.406.316c-.211.035-.316.035-.316-.211v-8.191c0-.316.246-.316.422-.352,1.512-.352,3.023-.668,4.535-1.02l.387-.07a7.056,7.056,0,0,0,.562,2.25,2.263,2.263,0,0,0,1.055,1.16,4.461,4.461,0,0,0,3.34.563c1.934-.387,3.832-.844,5.766-1.23l.316-.105c1.9-.352,3.762-.809,5.625-1.2,2.391-.492,4.781-1.055,7.172-1.547,1.828-.387,3.656-.809,5.484-1.2.422-.105.879-.211,1.3-.281s.457-.035.387.457v.352a2.461,2.461,0,0,1-.879.176,11.566,11.566,0,0,0-1.512.316h0a.865.865,0,0,1-.422.035c-1.582.281-3.129.668-4.676.984-1.266.246-2.5.562-3.762.773-.527.105-1.02.246-1.547.352-1.793.387-3.551.773-5.344,1.125-.879.176-1.758.352-2.637.563C26.5,122.217,26.363,122.217,26.328,122.358Z" transform="translate(-7.133 -75.881)" fill="#007aae"/>
  <path id="Path_97" data-name="Path 97" d="M200,103.215h-.809c-.633,0-.633,0-.773-.633-.176-.773-.387-1.547-.562-2.32-.035-.246-.141-.352-.387-.352h-3.375c-.281,0-.352.105-.387.352-.176.879-.387,1.723-.6,2.6-.07.246-.141.387-.422.352a3.972,3.972,0,0,0-.914,0c-.316.035-.387-.035-.316-.387.633-2.426,1.266-4.922,1.9-7.348.668-2.531,1.3-5.062,1.934-7.594.07-.281.176-.387.457-.387a12.954,12.954,0,0,0,1.652,0c.316,0,.387.105.457.352.844,3.621,1.723,7.277,2.6,10.9.316,1.371.633,2.707.984,4.078.07.316,0,.387-.316.352S200.384,103.215,200,103.215Z" transform="translate(-124.13 -56.738)" fill="#262324"/>
  <path id="Path_98" data-name="Path 98" d="M263.046,108.24H260.69a.422.422,0,0,1-.352-.246,3.164,3.164,0,0,1-.316-1.125c-.07-.035-.105,0-.141.035a3.347,3.347,0,0,1-2.039,1.406,5.3,5.3,0,0,1-2.672.035,2.95,2.95,0,0,1-2.391-2.6c-.352-2.812.738-3.937,2.848-4.641a7.032,7.032,0,0,1,1.23-.316,19.24,19.24,0,0,0,2.391-.492c.387-.141.633-.316.563-.773s.035-.949-.07-1.441a1.436,1.436,0,0,0-1.371-1.3c-1.406-.176-2.672,0-3.48,1.336-.105.176-.176.141-.316.035-.316-.211-.6-.422-.914-.6-.211-.105-.176-.246-.035-.387a3.955,3.955,0,0,1,2.285-1.617,7.91,7.91,0,0,1,4.43.035,2.767,2.767,0,0,1,2.145,2.531,6.5,6.5,0,0,1,.035.809V106.2A2.774,2.774,0,0,0,263.046,108.24Z" transform="translate(-163.87 -61.763)" fill="#262324"/>
  <path id="Path_99" data-name="Path 99" d="M318.613,102h-3.445c-.211,0-.352.035-.352.316a7.706,7.706,0,0,0,.633,3.445,2.51,2.51,0,0,0,2.32,1.512,2.454,2.454,0,0,0,2.637-1.23c.105-.211.211-.176.352-.07.211.141.422.281.668.422.316.141.352.316.176.6a3.111,3.111,0,0,1-1.582,1.336,7.383,7.383,0,0,1-5.2-.105,3.582,3.582,0,0,1-2.145-2.25,10.062,10.062,0,0,1,.176-7.629,4.744,4.744,0,0,1,5.238-2.812c.176.035.352.035.527.07a3.736,3.736,0,0,1,3.3,2.953,16.324,16.324,0,0,1,.457,3.2c.035.281-.105.281-.316.281Z" transform="translate(-202.317 -61.921)" fill="#262324"/>
  <path id="Path_100" data-name="Path 100" d="M225.495,101.978a11.693,11.693,0,0,0,.422,3.375,2.41,2.41,0,0,0,2.707,1.863,2.239,2.239,0,0,0,2-1.336c.141-.246.211-.246.422-.141s.527.281.809.422.246.211.105.422a3.561,3.561,0,0,1-2.145,1.687,7.07,7.07,0,0,1-4.008.035,3.906,3.906,0,0,1-2.848-2.848,10.779,10.779,0,0,1,.211-6.82,4.407,4.407,0,0,1,3.727-3.023,5.45,5.45,0,0,1,4.043.7,2.964,2.964,0,0,1,.984,1.2c.07.176.07.246-.105.316l-.211.105c-.281.141-.562.387-.844.387s-.387-.422-.6-.668a2.5,2.5,0,0,0-3.516-.211,2.587,2.587,0,0,0-.668.949A9.844,9.844,0,0,0,225.495,101.978Z" transform="translate(-144.284 -61.935)" fill="#262223"/>
  <path id="Path_101" data-name="Path 101" d="M290.707,97.054a4.359,4.359,0,0,1,4.676-1.441l.316.105c.844.352.914.527.316,1.23-.281.352-.562.668-.844,1.02-.141.176-.211.211-.352,0-.844-1.23-2.848-.879-3.551-.105a1.839,1.839,0,0,0-.562,1.3c.035,2.918,0,5.871.035,8.789,0,.316-.105.422-.422.422a18.38,18.38,0,0,0-1.969,0c-.246,0-.352-.035-.352-.316V96.492c0-.246.035-.352.316-.387.738-.141,1.441-.316,2.18-.457.211-.035.281,0,.281.211A6.062,6.062,0,0,0,290.707,97.054Z" transform="translate(-186.751 -61.898)" fill="#262324"/>
  <path id="Path_102" data-name="Path 102" d="M72.3,153.314a.527.527,0,0,1,.387.141,3.667,3.667,0,0,0,3.234.563c1.2-.246,2.355-.492,3.516-.738,1.09-.246,2.18-.492,3.3-.7,1.23-.246,2.426-.527,3.656-.773,1.09-.211,2.145-.492,3.2-.738a20.288,20.288,0,0,1,2.531-.562c.246-.035.246-.211.246-.387v-7.137c0-.387-.105-.422-.457-.352-1.16.281-2.32.492-3.48.738l-2.426.527c-1.406.316-2.848.633-4.254.914a1.445,1.445,0,0,1-.773,0c-.035-.035,0-.07.035-.105a.158.158,0,0,1,.176,0l3.586-.738c2.461-.527,4.922-1.055,7.383-1.617.281-.07.387-.035.387.316v7.488c0,.281-.07.387-.352.422-5.555,1.2-11.109,2.426-16.664,3.621a3.1,3.1,0,0,1-3.234-.879Z" transform="translate(-46.882 -92.283)" fill="#58b94c"/>
  <path id="Path_103" data-name="Path 103" d="M108.885,71.137c-.07-.141-.07-.141.07-.176.809-.176,1.652-.422,2.461-.562.984-.176,1.934-.492,2.918-.6a.323.323,0,0,0,.316-.352V62.067c0-.211-.035-.316-.316-.246-.914.211-1.863.281-2.742.563-.773.246-1.582.246-2.355.492-.668.176-1.336.316-2,.457a.8.8,0,0,1-.633-.035c1.688-.352,3.375-.738,5.062-1.09.914-.211,1.863-.352,2.777-.562.316-.07.387-.035.387.316V69.59c0,.176.035.352-.211.422C112.717,70.294,110.784,70.715,108.885,71.137Z" transform="translate(-69.124 -39.954)" fill="#55b94b"/>
  <path id="Path_104" data-name="Path 104" d="M77.3,117.033c.07-.422-.141-.422-.457-.352-1.547.352-3.094.668-4.641,1.02l-5.484,1.2c-1.793.387-3.621.844-5.414,1.2a39.165,39.165,0,0,1-4.043.809.075.075,0,0,1-.105-.105l4.289-.949c4.078-.879,8.191-1.793,12.3-2.672.141-.035.316-.035.457-.07a7.911,7.911,0,0,0,.773-.176c.211-.211.492,0,.7-.176.141-.07.316.035.422-.105h0c.246-.035.492-.105.738-.141l.422-.105a.587.587,0,0,1,.035.633Z" transform="translate(-37.05 -75.478)" fill="#0078b1"/>
  <path id="Path_105" data-name="Path 105" d="M79.738,147.844l-.176.035a3.069,3.069,0,0,0-.773.176,1.6,1.6,0,0,1-.7.176c-.141.07-.316-.035-.422.105h0a2.109,2.109,0,0,0-.809.211,9.648,9.648,0,0,1-1.371.316c-.141.07-.316-.035-.422.07a.352.352,0,0,1-.316.07c-.141.07-.316-.035-.422.07a1.6,1.6,0,0,1-.7.176c-.141.105-.316-.035-.422.105h0a2.559,2.559,0,0,0-.844.246l-1.02.6a.105.105,0,0,1-.141,0h0a3.776,3.776,0,0,1,1.934-.984c1.2-.316,2.426-.527,3.621-.809.914-.211,1.863-.422,2.777-.6.316-.07.316-.246.281-.492-.035-.316-.246-.176-.422-.141-2,.457-3.973.914-5.977,1.3a30.378,30.378,0,0,1-2.988.668c-.141,0-.316.105-.422-.035,2.566-.668,5.168-1.16,7.769-1.758a1.2,1.2,0,0,1,.352-.035,4.977,4.977,0,0,0,.7-.141,4.827,4.827,0,0,1,.984-.176A.826.826,0,0,1,79.738,147.844Z" transform="translate(-45.391 -95.321)" fill="#0079b0"/>
  <path id="Path_106" data-name="Path 106" d="M185.363,142.835a1.758,1.758,0,0,1,1.828,1.723v.07a1.846,1.846,0,0,1-3.691-.035,1.758,1.758,0,0,1,1.758-1.793A.13.13,0,0,0,185.363,142.835Z" transform="translate(-118.988 -92.597)" fill="#2d2b2c"/>
  <path id="Path_107" data-name="Path 107" d="M253.231,146.458c-.246.141-.316,0-.422-.141-.246-.387-.492-.773-.773-1.16s-.633-.316-1.02-.316c-.176,0-.141.141-.141.246v1.16c0,.105.035.281-.141.281s-.141-.141-.141-.246v-3.059c0-.141,0-.246.176-.246a4.827,4.827,0,0,1,1.23.07.745.745,0,0,1,.6.633.784.784,0,0,1-.352.914c-.211.141-.211.211-.07.422A13.735,13.735,0,0,1,253.231,146.458Z" transform="translate(-162.494 -92.704)" fill="#343334"/>
  <path id="Path_108" data-name="Path 108" d="M158.6,146.393c-.246.141-.316,0-.422-.141-.246-.387-.492-.773-.738-1.125s-.633-.352-1.02-.352c-.176,0-.141.141-.141.246v1.2c0,.105.035.246-.141.246s-.141-.141-.141-.246v-3.059c0-.141,0-.281.211-.281a4.043,4.043,0,0,1,1.125.07.819.819,0,0,1,.7.668.784.784,0,0,1-.352.914c-.246.141-.141.211-.035.387Z" transform="translate(-101.151 -92.64)" fill="#343334"/>
  <path id="Path_109" data-name="Path 109" d="M327.679,144.781V143.3c0-.246.07-.352.316-.316a4.974,4.974,0,0,1,1.02.07.826.826,0,0,1,.668.633.851.851,0,0,1-.352.949c-.211.141-.211.176-.07.387.316.422.6.844.879,1.3.035.07.176.141.035.246a.2.2,0,0,1-.246-.07l-.316-.492c-.176-.246-.352-.492-.492-.738-.246-.422-.633-.352-1.02-.352-.176,0-.141.141-.141.246v1.125c0,.105.07.316-.141.316s-.141-.211-.141-.352Z" transform="translate(-212.473 -92.715)" fill="#302e30"/>
  <path id="Path_110" data-name="Path 110" d="M336.1,144.688v-1.477c0-.211.035-.316.281-.316h1.406c.105,0,.246-.035.246.141s-.141.105-.246.105h-1.02c-.246,0-.352.035-.352.352,0,1.055,0,1.055,1.055,1.09.176,0,.492-.141.492.141,0,.211-.316.07-.492.105-.352.035-.773-.141-.984.07s-.035.668-.07.984.07.387.352.352c.352-.035.7,0,1.055,0,.105,0,.211-.035.246.105s-.141.141-.246.141h-1.441c-.211,0-.246-.07-.246-.281C336.1,145.707,336.1,145.18,336.1,144.688Z" transform="translate(-217.941 -92.657)" fill="#3a393a"/>
  <path id="Path_111" data-name="Path 111" d="M285.17,144.672v-1.441c0-.281.105-.352.352-.352.422.035.809,0,1.23,0,.105,0,.316-.07.316.141s-.176.105-.316.105h-1.02c-.211,0-.316.035-.281.281a3.669,3.669,0,0,1,0,.879c0,.246.105.281.281.281h1.02c.105,0,.246-.035.246.141s-.176.105-.281.105a9.841,9.841,0,0,1-1.02,0c-.211,0-.281.07-.281.281-.035,1.16-.035,1.125,1.09,1.16.176,0,.527-.105.527.105,0,.281-.352.105-.562.141-.352.035-.7,0-1.055,0-.246,0-.316-.07-.316-.316A11.138,11.138,0,0,0,285.17,144.672Z" transform="translate(-184.87 -92.641)" fill="#383738"/>
  <path id="Path_112" data-name="Path 112" d="M271.7,144.688v-1.477c0-.246.07-.316.316-.316.422.035.879,0,1.3,0,.105,0,.281-.035.281.141s-.176.105-.281.105h-1.055c-.211,0-.316.035-.281.281a3.669,3.669,0,0,1,0,.879c0,.246.07.281.281.281h1.02c.105,0,.246-.035.281.105s-.141.141-.246.141h-1.055c-.176,0-.281.035-.246.246v.914c0,.211.07.281.281.281h1.125c.105,0,.246-.035.281.105s-.141.141-.246.141h-1.441c-.211,0-.246-.07-.246-.281A11.651,11.651,0,0,1,271.7,144.688Z" transform="translate(-176.176 -92.657)" fill="#39383a"/>
  <path id="Path_113" data-name="Path 113" d="M148.73,144.646v-1.477c0-.211.07-.316.281-.281.352,0,.738,0,1.09.035a.907.907,0,0,1-.035,1.793,2.858,2.858,0,0,1-.773.035c-.246,0-.316.07-.316.316v1.09c0,.105.035.246-.141.246s-.141-.141-.141-.246Z" transform="translate(-96.418 -92.65)" fill="#383738"/>
  <path id="Path_114" data-name="Path 114" d="M261.876,144.641a1.487,1.487,0,0,0,1.406,1.547h.141a3.255,3.255,0,0,0,.809-.141c.141-.035.316-.281.422-.07s-.211.281-.352.352a1.872,1.872,0,0,1-2.707-1.793,1.928,1.928,0,0,1,2.918-1.477c.105.07.176.141.141.246s-.176.035-.246,0a1.905,1.905,0,0,0-.879-.211,1.494,1.494,0,0,0-1.617,1.371A.384.384,0,0,0,261.876,144.641Z" transform="translate(-169.627 -92.61)" fill="#323032"/>
  <path id="Path_115" data-name="Path 115" d="M195.435,144.1v-.879c0-.141-.105-.352.141-.387s.141.211.141.352v1.723a1.161,1.161,0,1,0,2.32.07c.035-.6,0-1.23,0-1.863,0-.105-.07-.316.141-.316s.141.211.141.316V144.8a1.47,1.47,0,0,1-1.477,1.582A1.444,1.444,0,0,1,195.4,144.8,4.05,4.05,0,0,0,195.435,144.1Z" transform="translate(-126.705 -92.597)" fill="#323032"/>
  <path id="Path_116" data-name="Path 116" d="M70.237,93.755c0-.07-.035-.176-.035-.246-.07-.492-.07-.492-.6-.387-1.758.387-3.48.738-5.238,1.125l-3.867.844c-.914.211-1.863.422-2.777.6-.141.035-.316.07-.422-.07a2.3,2.3,0,0,0,.7-.176c.141-.07.316.035.422-.105h0c.246-.035.492-.105.738-.141l1.512-.352c.211-.07.457-.035.633-.176a1.121,1.121,0,0,1,.492-.105c.141-.105.316.035.422-.105h0l1.477-.316h0c.141-.07.316.035.422-.07,1.652-.387,3.3-.773,4.957-1.125.387-.105.773-.141,1.16-.246.246.316.07.7.07,1.055a.408.408,0,0,1-.352.07C69.956,93.684,70.2,93.86,70.237,93.755Z" transform="translate(-37.156 -60.11)" fill="#007aaf"/>
  <path id="Path_117" data-name="Path 117" d="M172.716,142.891a2.32,2.32,0,0,1,.949.211c.105.035.211.141.141.246s-.176.035-.281,0a4.25,4.25,0,0,0-.633-.176,1.491,1.491,0,0,0-1.617.7,1.666,1.666,0,0,0,.035,1.758,1.575,1.575,0,0,0,1.688.6c.211-.07.422-.141.6-.211.07-.035.141-.105.211,0s0,.176-.105.246a1.923,1.923,0,0,1-2.953-1.2,1.86,1.86,0,0,1,1.969-2.18Z" transform="translate(-110.701 -92.653)" fill="#323031"/>
  <path id="Path_118" data-name="Path 118" d="M165.349,146.536c-.949,0-.949,0-.949-.984v-2.215c0-.316.105-.387.387-.352.422.035.879,0,1.3,0,.105,0,.211,0,.211.105s-.105.141-.211.141H165c-.246,0-.316.07-.316.316-.035,1.09-.035,1.09,1.055,1.125.176,0,.492-.141.492.141,0,.211-.316.07-.492.105-.352.035-.773-.141-.984.07s-.035.668-.07.984.035.387.352.387h1.125c.105,0,.211,0,.211.141s-.105.105-.176.105Z" transform="translate(-106.603 -92.712)" fill="#363536"/>
  <path id="Path_119" data-name="Path 119" d="M309.707,142.893a2.2,2.2,0,0,1,.949.211c.105.035.211.141.141.246-.07.176-.176.035-.246,0a1.781,1.781,0,0,0-1.863.105,1.578,1.578,0,0,0-.457,1.934,1.477,1.477,0,0,0,1.723.844,1.684,1.684,0,0,0,.7-.246c.07-.035.141-.105.211,0s0,.176-.105.246a1.954,1.954,0,0,1-2.953-1.09,1.832,1.832,0,0,1,1.9-2.25Z" transform="translate(-199.564 -92.655)" fill="#313031"/>
  <path id="Path_120" data-name="Path 120" d="M232.109,142.988h.738c.105,0,.211,0,.211.141s-.105.105-.176.105h-1.16c-.211,0-.281.07-.281.281-.035,1.125-.035,1.125,1.09,1.125.176,0,.457-.141.457.141,0,.211-.316.105-.457.105a2.6,2.6,0,0,1-.738,0c-.246-.035-.352.035-.352.352,0,1.09,0,1.09,1.055,1.09.211,0,.563-.141.563.105s-.352.105-.562.105c-.422,0-.984.211-1.266-.07s-.07-.809-.07-1.23v-1.863c0-.316.07-.422.387-.387Z" transform="translate(-149.844 -92.715)" fill="#373637"/>
  <path id="Path_121" data-name="Path 121" d="M243.41,144.693v-1.477c0-.211.07-.316.281-.316.352,0,.7,0,1.055.035a.915.915,0,0,1-.07,1.828h0a5.194,5.194,0,0,1-.738.035c-.211,0-.316.07-.281.281v1.16c0,.105,0,.246-.176.211s-.105-.141-.105-.211l.035-1.547Z" transform="translate(-157.805 -92.662)" fill="#343234"/>
  <path id="Path_122" data-name="Path 122" d="M25.8,109.858c.035-.105.141-.141.176-.281a4.486,4.486,0,0,1,2.391-2.953,5.115,5.115,0,0,1,1.477-.422c.492-.105.984-.246,1.477-.352,1.125-.211,2.18-.562,3.3-.7.105-.035.176-.07.176.105l-4.254.984a11.055,11.055,0,0,0-1.547.387,4.18,4.18,0,0,0-2.777,2.848,1.712,1.712,0,0,1-.141.387Z" transform="translate(-16.73 -68.163)" fill="#0079b0"/>
  <path id="Path_123" data-name="Path 123" d="M292.841,142.894a1.157,1.157,0,0,1,.668.211.169.169,0,0,1,.07.211c-.07.105-.141.035-.211,0a1.083,1.083,0,0,0-.738-.141.6.6,0,0,0-.527.527.612.612,0,0,0,.316.668c.211.105.457.211.668.316a.967.967,0,0,1,.6,1.23.949.949,0,0,1-.562.6,1.2,1.2,0,0,1-1.23-.176.151.151,0,0,1-.07-.246h0c.07-.141.141,0,.246.035a1.53,1.53,0,0,1,.246.141.8.8,0,0,0,1.055-.316h0c.176-.387,0-.738-.457-.949-.176-.07-.316-.141-.492-.211a.827.827,0,0,1-.6-1.055A.949.949,0,0,1,292.841,142.894Z" transform="translate(-189.201 -92.656)" fill="#323031"/>
  <path id="Path_124" data-name="Path 124" d="M299.345,142.894a1.157,1.157,0,0,1,.6.141c.105.07.176.176.105.281s-.176,0-.246-.035a1.157,1.157,0,0,0-.6-.141.643.643,0,0,0-.633.492.538.538,0,0,0,.352.7c.211.105.457.211.668.316a.925.925,0,0,1,.563,1.2h0a1.009,1.009,0,0,1-1.2.6,1.34,1.34,0,0,1-.6-.281.134.134,0,0,1-.035-.211c.07-.105.141-.035.211,0a2.423,2.423,0,0,0,.527.246.7.7,0,0,0,.809-.457.594.594,0,0,0-.316-.809h0c-.211-.105-.457-.211-.668-.316a.83.83,0,0,1-.562-1.055A1,1,0,0,1,299.345,142.894Z" transform="translate(-193.419 -92.656)" fill="#323132"/>
  <path id="Path_125" data-name="Path 125" d="M123.373,124.682a3.839,3.839,0,0,1,1.266-.422.39.39,0,0,0,.387-.457v-7.1c0-.352-.105-.387-.422-.316-.492.141-.984.246-1.477.352a.7.7,0,0,1-.527-.035l2.355-.527c.281-.07.211.141.211.281v7.488c0,.316-.105.457-.422.492a11.381,11.381,0,0,0-1.371.246Z" transform="translate(-79.499 -75.323)" fill="#58ba4d"/>
  <path id="Path_126" data-name="Path 126" d="M206.467,142.892a1.185,1.185,0,0,1,.6.176.183.183,0,0,1,.105.246c-.07.141-.176.035-.246,0a1.982,1.982,0,0,0-.422-.141.7.7,0,0,0-.809.457c-.105.387.105.6.422.773.211.105.422.176.633.281a.911.911,0,0,1,.527,1.16,1.023,1.023,0,0,1-1.09.668,1.262,1.262,0,0,1-.633-.246c-.105-.07-.176-.176-.105-.281s.176,0,.246.035c.141.07.281.141.457.211a.745.745,0,0,0,.879-.457.647.647,0,0,0-.352-.844,3.907,3.907,0,0,0-.562-.246.893.893,0,0,1-.668-1.09A.96.96,0,0,1,206.467,142.892Z" transform="translate(-133.202 -92.654)" fill="#313031"/>
  <path id="Path_127" data-name="Path 127" d="M318.16,145.22a3.894,3.894,0,0,0-.492,1.02c-.07.141-.141.316-.281.211s0-.211.035-.316c.422-.984.879-1.969,1.336-2.953.035-.105.035-.281.211-.281s.141.141.176.246l1.371,3.059c.035.07.141.176-.035.246-.105.035-.176-.035-.211-.141-.141-.316-.246-.633-.387-.949-.035-.176-.246-.211-.316-.352-.176-.527-.492-1.02-.6-1.512-.141.457-.422.984-.633,1.512C318.266,145.115,318.2,145.15,318.16,145.22Z" transform="translate(-205.767 -92.662)" fill="#333132"/>
  <path id="Path_128" data-name="Path 128" d="M225.893,142.959h.527c.141,0,.352-.105.352.141s-.211.105-.352.105h-.914c-.211,0-.281.07-.281.281-.035,1.02-.035,1.02.984,1.055h.141c.105,0,.246-.035.246.141s-.141.105-.211.105h-.773c-.316-.035-.387.105-.352.387.035.352,0,.7,0,1.055,0,.105.07.281-.141.281s-.141-.176-.141-.281v-2.953c0-.246.07-.352.316-.316Z" transform="translate(-145.878 -92.685)" fill="#3e3e40"/>
  <path id="Path_129" data-name="Path 129" d="M51.418,72.81c-.105-.035-.141-.035-.035-.141a3.227,3.227,0,0,1,1.125-.352c1.582-.422,3.164-.809,4.781-1.23a8.371,8.371,0,0,1,.914-.176.39.39,0,0,0,.387-.387v-.07c-.035-.352-.035-.7-.07-1.055a3.435,3.435,0,0,1,.141,1.582l-3.516.879Z" transform="translate(-33.277 -45.002)" fill="#0079b0"/>
  <path id="Path_130" data-name="Path 130" d="M215.393,144.758v-1.512c0-.105-.035-.246.105-.246s.176.141.176.246v2.707c0,.281.07.352.352.352.387-.035.773,0,1.16,0,.105,0,.211,0,.211.105s-.105.105-.211.105h-1.512c-.211,0-.246-.07-.246-.246C215.393,145.777,215.393,145.285,215.393,144.758Z" transform="translate(-139.667 -92.727)" fill="#3a393a"/>
  <path id="Path_131" data-name="Path 131" d="M278.6,144.758v-1.512c0-.105,0-.246.141-.246s.141.141.141.246v2.707c0,.281.07.387.352.352.387-.035.773,0,1.16,0,.105,0,.211,0,.211.141s-.105.105-.176.105h-1.617c-.211,0-.211-.141-.211-.281Z" transform="translate(-180.655 -92.727)" fill="#3c3b3c"/>
  <path id="Path_132" data-name="Path 132" d="M222.376,144.785v1.477c0,.105.035.281-.141.281s-.141-.176-.141-.281v-3.023c0-.105-.035-.281.176-.246s.141.141.141.246Z" transform="translate(-144.013 -92.718)" fill="#545457"/>
  <path id="Path_133" data-name="Path 133" d="M181.32,144.763v1.477c0,.105.035.246-.141.211s-.105-.141-.105-.211v-3.094c0-.105,0-.246.141-.246s.105.141.105.211Z" transform="translate(-117.407 -92.662)" fill="#262324"/>
  <path id="Path_134" data-name="Path 134" d="M258.993,144.723v-1.477c0-.105-.035-.246.105-.246s.141.141.141.281v2.988c0,.105.035.246-.105.246s-.141-.141-.141-.246Z" transform="translate(-167.939 -92.727)" fill="#2c292a"/>
  <path id="Path_135" data-name="Path 135" d="M117.6,140.9a.351.351,0,0,1,.035-.105,17,17,0,0,1,2.32-.492.446.446,0,0,1,.211.035A24.109,24.109,0,0,1,117.6,140.9Z" transform="translate(-76.257 -90.974)" fill="#58ba4d"/>
  <path id="Path_136" data-name="Path 136" d="M319.7,148.916l.105-.211a2.281,2.281,0,0,1,1.371,0c.07.141.281.176.246.387a.418.418,0,0,0-.387-.141C320.579,148.952,320.122,148.916,319.7,148.916Z" transform="translate(-207.306 -96.358)" fill="#383738"/>
  <path id="Path_137" data-name="Path 137" d="M237.8,152.655a.967.967,0,0,0,.07-.7c-.035-.141-.105-.352.176-.352s.176.176.176.316a.7.7,0,0,1-.422.738Z" transform="translate(-154.199 -98.303)" fill="#595a5c"/>
  <path id="Path_138" data-name="Path 138" d="M119.2,117.6a4.964,4.964,0,0,1-1.547.492.594.594,0,0,1-.352-.105C117.933,117.846,118.566,117.705,119.2,117.6Z" transform="translate(-76.062 -76.257)" fill="#58ba4d"/>
  <path id="Path_139" data-name="Path 139" d="M301.187,26.873c-.07.562-.422.633-.879.6a3.108,3.108,0,0,0-.809,0c-.387.035-.562-.105-.6-.457-.035-.07-.035-.105-.07-.176-.281-.281-.246-.633-.352-.984a5.414,5.414,0,0,0-.316-1.3c-.035-.105-.07-.246-.105-.387a14.248,14.248,0,0,0-.422-1.652,10.5,10.5,0,0,1-.492-2.32.84.84,0,0,0-.176-.492v7.312c0,.316-.07.457-.387.422a6.008,6.008,0,0,0-1.125,0c-.352.035-.457-.105-.457-.422V17.522c0-.246.07-.352.316-.352h2.461a.33.33,0,0,1,.387.316,2.03,2.03,0,0,0,.176.492,4.937,4.937,0,0,1,.457,1.441c.422,1.441.773,2.918,1.2,4.395.316-1.336.7-2.6,1.02-3.9.211-.844.422-1.723.7-2.566a.672.672,0,0,1,.492-.246h2.355c.316,0,.422.105.422.422V27.19c0,.281-.105.387-.352.387h-1.266a.352.352,0,0,1-.422-.316V20.51c0-.105.035-.211-.035-.316-.492,2.039-.984,4.078-1.547,6.082a.794.794,0,0,1-.176.6Z" transform="translate(-191.29 -11.088)" fill="#ed1f25"/>
  <path id="Path_140" data-name="Path 140" d="M35.512,27.324c-.07.07-.105.176-.211.176a12,12,0,0,1-1.934-.07.13.13,0,0,1-.141-.141c-.457-2.215-1.09-4.395-1.617-6.574a1.758,1.758,0,0,1-.07-.422v6.644c0,.668-.035.7-.7.7h-.984c-.246,0-.352-.07-.352-.352V17.621c0-.281.105-.422.387-.422h2.391a.527.527,0,0,1,.387.141,1.406,1.406,0,0,1,.211.527c.457,1.687.914,3.34,1.336,5.062a3.843,3.843,0,0,0,.176.6c.035.105.035.246.07.352s.035.035.035,0,.035-.07.035-.105a7.774,7.774,0,0,0,.176-.879,1.339,1.339,0,0,1,.105-.352,1.737,1.737,0,0,0,.176-.562,7.119,7.119,0,0,1,.316-1.16c.141-.316.141-.7.281-1.02a1.157,1.157,0,0,0,.141-.6A8.044,8.044,0,0,1,36,18.218a2.236,2.236,0,0,0,.211-.633.5.5,0,0,1,.492-.316H39.1c.316,0,.422.105.422.422v9.7c0,.246-.105.352-.352.352H37.9c-.316,0-.422-.141-.422-.457V25.144c0-1.582.035-3.164-.035-4.746-.211,1.02-.527,2.039-.738,3.059-.281,1.2-.633,2.355-.914,3.551C35.652,27.042,35.652,27.218,35.512,27.324Z" transform="translate(-19.129 -11.152)" fill="#ed1f25"/>
  <path id="Path_141" data-name="Path 141" d="M239.786,23.387a3.417,3.417,0,0,0-1.336-.176c-.246,0-.176.211-.176.352v3.48c0,.387-.105.492-.457.457a6.4,6.4,0,0,0-1.16,0c-.352.035-.457-.07-.457-.457V17.622c0-.316.07-.422.422-.422,1.863.035,3.762-.035,5.625.07a1.849,1.849,0,0,1,1.441.527,2.98,2.98,0,0,1,.914,3.164,2.4,2.4,0,0,1-.633,1.125,3.67,3.67,0,0,1-1.723.879c1.406,1.055,2.109,2.6,3.023,3.973a.626.626,0,0,1,.141.352c0,.176-.141.176-.281.176h-1.9a.566.566,0,0,1-.387-.176A5.232,5.232,0,0,1,242,26.165c-.492-.7-.984-1.441-1.477-2.145Z" transform="translate(-153.161 -11.153)" fill="#ed1f25"/>
  <path id="Path_142" data-name="Path 142" d="M99.2,23.787a.2.2,0,0,0,.176.211c.07-.141,0-.316,0-.457V17.705c0-.352.105-.422.422-.422.387.035.809,0,1.2,0,.246,0,.352.035.352.316v9.6c0,.246-.07.316-.316.316H99.236c-.176.035-.176-.105-.211-.176-1.2-1.969-2.426-3.937-3.656-5.906-.035-.035-.035-.141-.141-.07-.035,1.863,0,3.691,0,5.555,0,.668-.035.7-.7.7h-.984c-.246,0-.352-.07-.352-.352V17.494c0-.07-.035-.176.07-.211h1.617a.457.457,0,0,1,.457.176,3.368,3.368,0,0,1,.6.844c1.09,1.723,2.145,3.516,3.234,5.238C99.166,23.612,99.2,23.717,99.2,23.787Z" transform="translate(-60.424 -11.201)" fill="#ed1f25"/>
  <path id="Path_143" data-name="Path 143" d="M129.966,27.425c0,.105-.035.141-.141.141h-2a.267.267,0,0,1-.141-.07,3.415,3.415,0,0,1-.562-1.266c-.352-.844-.316-.844-1.23-.844h-2.812a.323.323,0,0,0-.387.246c-.176.457-.352.914-.492,1.371-.07.176-.07.422-.316.527l-2,.035c-.105,0-.176-.035-.176-.176a3.951,3.951,0,0,1,.352-1.09c.949-2.426,1.863-4.816,2.848-7.242a11.433,11.433,0,0,0,.527-1.406c.035-.07.035-.176.141-.141.105-.07.141-.211.316-.211h1.863a.267.267,0,0,1,.176.07,5.137,5.137,0,0,1,.7,1.617c1.09,2.637,2.145,5.273,3.2,7.945A.879.879,0,0,1,129.966,27.425Z" transform="translate(-77.618 -11.218)" fill="#ed1f25"/>
  <path id="Path_144" data-name="Path 144" d="M64.48,17.7a.608.608,0,0,1,.7-.422,7.608,7.608,0,0,0,1.266,0,.517.517,0,0,1,.563.316.633.633,0,0,1,.211.316c1.16,2.953,2.32,5.871,3.551,8.789.035.141.105.281.141.422a.225.225,0,0,1,0,.211c0,.246-.176.141-.316.141-.492,0-.949-.035-1.441,0-.387.035-.6-.105-.668-.457l-.105-.211a3.474,3.474,0,0,1-.527-1.16.411.411,0,0,0-.492-.352h-3.27a.439.439,0,0,0-.492.352c-.105.387-.281.738-.387,1.125a.96.96,0,0,1-.246.457.4.4,0,0,1-.457.246,9.387,9.387,0,0,0-1.406,0c-.352.035-.457-.07-.316-.422a4.753,4.753,0,0,1,.387-1.2c.844-2.074,1.652-4.184,2.461-6.293.211-.562.457-1.125.668-1.723C64.34,17.84,64.41,17.77,64.48,17.7Z" transform="translate(-39.379 -11.196)" fill="#ed1f25"/>
  <path id="Path_145" data-name="Path 145" d="M266.8,17.609c.07-.07.105-.246.246-.246a10.591,10.591,0,0,1,2.109.07,5.6,5.6,0,0,1,.668,1.477c1.09,2.6,2.109,5.273,3.2,7.875a1.456,1.456,0,0,1,.176.668c0,.07-.035.176-.141.176h-2a.267.267,0,0,1-.141-.07l-.035-.035a1.09,1.09,0,0,1-.211-.457c-.176-.422-.352-.844-.492-1.3a.4.4,0,0,0-.457-.316h-3.34a.418.418,0,0,0-.457.316c-.141.457-.316.914-.492,1.371a.57.57,0,0,1-.176.316c-.035,0-.035,0-.07.035a2.623,2.623,0,0,0-.914-.141c-.176.035-.316,0-.422.176s-.352.035-.527.105-.281.07-.316-.141a13.127,13.127,0,0,1,.7-1.969c.457-1.23,1.02-2.426,1.406-3.727a19.647,19.647,0,0,0,.914-2.215c.211-.562.457-1.125.668-1.723a.162.162,0,0,1,.105-.246Z" transform="translate(-170.54 -11.245)" fill="#ed1f25"/>
  <path id="Path_146" data-name="Path 146" d="M212.368,24.957a4.155,4.155,0,0,0,.211-1.723c.035-1.828.035-3.656,0-5.519,0-.422.105-.527.492-.492a6.785,6.785,0,0,0,1.2,0c.316-.035.387.105.387.387-.035,2.426.07,4.816-.105,7.242A2.384,2.384,0,0,1,213.422,27a3.941,3.941,0,0,1-2.145.738,6.075,6.075,0,0,1-2.953-.352,3.136,3.136,0,0,1-1.723-1.758.594.594,0,0,1-.035-.492c-.316-2.531-.105-5.1-.176-7.629,0-.246.07-.352.316-.316.457,0,.914.035,1.371,0,.316-.035.387.105.387.387v5.484a1.013,1.013,0,0,0,.035.457c.141.105.07.281.105.422.035,1.371.914,1.828,2.18,1.793A1.656,1.656,0,0,0,212.368,24.957Z" transform="translate(-133.829 -11.141)" fill="#ed1f25"/>
  <path id="Path_147" data-name="Path 147" d="M158.082,23.517a13.335,13.335,0,0,1-3.551.246c-.316,0-.422.07-.422.422.035,1.02,0,2.039,0,3.059,0,.316-.07.457-.422.422a8.034,8.034,0,0,0-1.3,0c-.281,0-.387-.07-.387-.387V17.787c0-.246.035-.387.352-.387,1.547.035,3.094-.035,4.641.07l.914.105a1.571,1.571,0,0,1,.949.422c.176.176.387.352.563.562a3.475,3.475,0,0,1-.773,4.781,1.055,1.055,0,0,1-.562.176Z" transform="translate(-98.563 -11.283)" fill="#ed1f25"/>
  <path id="Path_148" data-name="Path 148" d="M206.414,25.41a3.2,3.2,0,0,0,3.2,2.426,7.094,7.094,0,0,0,2.285-.105,2.873,2.873,0,0,0,2.426-2.531c0-.035.035-.07.035-.105a2.953,2.953,0,0,0,.176-1.09V17.957a1.012,1.012,0,0,1,.035-.457c.176.035.105.176.105.246,0,1.969.035,3.9,0,5.871a6.279,6.279,0,0,1-.387,2.426,2.812,2.812,0,0,1-1.617,1.617,5.544,5.544,0,0,1-4.605,0,3.108,3.108,0,0,1-1.934-2.707c-.176-2.426-.035-4.887-.07-7.348a.123.123,0,0,1,.035-.07c.105.141.035.246.035.387v5.2a14.314,14.314,0,0,0,.176,2.145C206.309,25.34,206.379,25.375,206.414,25.41Z" transform="translate(-133.606 -11.348)" fill="#ffe500"/>
  <path id="Path_149" data-name="Path 149" d="M216.4,25.1a.57.57,0,0,1-.176.316,2.3,2.3,0,0,1-2.391.492,1.656,1.656,0,0,1-1.23-1.617V17.435h.141a.865.865,0,0,1,.035.422v5.766a5.365,5.365,0,0,0,.105,1.055,1.459,1.459,0,0,0,1.371,1.16,2.668,2.668,0,0,0,1.477-.211.988.988,0,0,0,.563-.809c.035-.387.105-.773.105-1.2V17.4h.105a10.879,10.879,0,0,1,.07,1.863c.035.633,0,1.3,0,1.969s.035,1.3,0,1.934C216.537,23.869,216.467,24.466,216.4,25.1Z" transform="translate(-137.858 -11.283)" fill="#ffe200"/>
  <path id="Path_150" data-name="Path 150" d="M312.535,32.32c.316-1.266.633-2.566.949-3.867.246-.984.527-1.969.773-2.953.281.07.141.281.141.387v6.574c0,.141-.035.316.035.422a5.585,5.585,0,0,0,1.336.07,1.055,1.055,0,0,1,.562.07,7.137,7.137,0,0,1-1.934.07c-.141,0-.246-.176-.246-.387a27.026,27.026,0,0,0,0-3.375c-.035-.246.07-.527.035-.809a3.4,3.4,0,0,0-.141-1.336l-1.477,5.73h-.07C312.5,32.707,312.535,32.531,312.535,32.32Z" transform="translate(-202.637 -16.535)" fill="#ffdf00"/>
  <path id="Path_151" data-name="Path 151" d="M46.6,32.707c.246-1.02.492-2.074.773-3.094L48.428,25.5c.176,0,.105.105.105.211v7.172c0,.035-.035.07-.035.105-.211-.105-.176-.316-.176-.457V26.977h-.07l-.6,2.25c-.281,1.16-.6,2.32-.879,3.48-.035.07,0,.211-.141.211C46.6,32.883,46.6,32.777,46.6,32.707Z" transform="translate(-30.217 -16.535)" fill="#ffe100"/>
  <path id="Path_152" data-name="Path 152" d="M307.914,17.581l-1.16,4.43c-.176.7-.387,1.406-.562,2.145-.105.035-.105-.035-.141-.105-.527-1.934-1.02-3.867-1.547-5.8v-.105c.07-.281-.105-.527-.035-.773.563,2.039,1.09,4.078,1.652,6.152.211-.844.457-1.687.668-2.531.316-1.125.6-2.25.879-3.41.035-.105,0-.246.176-.281a.229.229,0,0,1,.07.281Z" transform="translate(-197.419 -11.218)" fill="#ffe500"/>
  <path id="Path_153" data-name="Path 153" d="M35.1,25.7c.562,2.25,1.16,4.535,1.723,6.785.035.176-.035.316.07.457v.141h0a.432.432,0,0,1-.246-.387c-.246-1.09-.527-2.18-.809-3.234l-.527-2.215c-.035-.07-.07-.141-.141-.141V32.7c0,.141.105.352-.176.387a.7.7,0,0,1-.035-.281V26.087C34.959,25.946,34.853,25.77,35.1,25.7Z" transform="translate(-22.654 -16.665)" fill="#ffe100"/>
  <path id="Path_154" data-name="Path 154" d="M258.2,29.908a3.048,3.048,0,0,1-.352,1.09c-.563,1.441-1.125,2.918-1.687,4.359l-.105.211h-.176c-.457-.738-.914-1.441-1.406-2.18a5.756,5.756,0,0,0-2.074-2.145,4.018,4.018,0,0,0,1.969-.879.067.067,0,0,1,0,.105,2.763,2.763,0,0,1-1.406.879,17.637,17.637,0,0,1,2.953,4.008c.738-1.863,1.441-3.656,2.145-5.449,0-.035.035-.07.07-.035S258.2,29.873,258.2,29.908Z" transform="translate(-163.666 -19.361)" fill="#ffe400"/>
  <path id="Path_155" data-name="Path 155" d="M98.755,28.3c1.266,2,2.5,4.043,3.762,6.047.07.105.105.246.176.352V34.8h0c-.176,0-.281-.141-.352-.316-1.055-1.758-2.145-3.516-3.234-5.273-.105-.105-.211-.246-.316-.352v5.414c0,.141.105.352-.176.387a.608.608,0,0,1-.035-.352v-5.7C98.614,28.546,98.508,28.335,98.755,28.3Z" transform="translate(-63.915 -18.351)" fill="#ffe000"/>
  <path id="Path_156" data-name="Path 156" d="M301.012,26c.176.773.387,1.547.563,2.285A12.638,12.638,0,0,0,302,29.937c.035.105-.035.246.07.352.105.422.211.879.316,1.3l.246,1.02.07.668h-.105L301.118,27.3h-.07v6.012a.32.32,0,0,1-.105-.352V26.387C300.907,26.246,300.872,26.105,301.012,26Z" transform="translate(-195.122 -16.859)" fill="#ffe000"/>
  <path id="Path_157" data-name="Path 157" d="M123.243,17.667c-.492,1.512-1.125,2.953-1.687,4.43-.668,1.723-1.371,3.48-2.039,5.2a.882.882,0,0,1-.141.246l-.176.141.422-1.266c.738-1.969,1.512-3.9,2.285-5.871.387-.949.738-1.9,1.09-2.848.035-.07.035-.246.176-.211C123.208,17.492,123.208,17.6,123.243,17.667Z" transform="translate(-77.294 -11.339)" fill="#ffe400"/>
  <path id="Path_158" data-name="Path 158" d="M141.505,27.361c-.527-1.125-.949-2.285-1.406-3.41-.879-2.145-1.723-4.254-2.566-6.4a.447.447,0,0,1-.035-.211c.105-.281.176-.07.211.035.281.633.527,1.3.809,1.934.352.879.7,1.793,1.09,2.707.281.668.563,1.336.844,2.039.422,1.02.809,2.039,1.23,3.059C141.646,27.22,141.822,27.361,141.505,27.361Z" transform="translate(-89.158 -11.154)" fill="#ffe400"/>
  <path id="Path_159" data-name="Path 159" d="M284.543,27.48c-.668-1.477-1.23-2.988-1.828-4.465-.738-1.863-1.477-3.691-2.215-5.555.141-.176.176,0,.211.07.492,1.16.949,2.32,1.406,3.48.6,1.512,1.23,3.023,1.828,4.535.246.6.492,1.23.7,1.828.035.035.105.141-.035.141C284.613,27.55,284.578,27.515,284.543,27.48Z" transform="translate(-181.887 -11.273)" fill="#ffe400"/>
  <path id="Path_160" data-name="Path 160" d="M82.6,27.425a.155.155,0,0,1-.035-.176c-.07-.141-.035-.316-.176-.422-1.23-3.023-2.426-6.012-3.656-9.035,0-.035-.035-.105-.035-.141v-.316l.07-.035q2.057,5.062,4.113,10.23C82.708,27.566,82.708,27.425,82.6,27.425Z" transform="translate(-51.032 -11.218)" fill="#ffe400"/>
  <path id="Path_161" data-name="Path 161" d="M63.943,17.852l-1.758,4.605c-.6,1.547-1.2,3.059-1.793,4.605a1.529,1.529,0,0,1-.141.246c-.176.07-.141.316-.352.422L63.908,17.5l.07.035Z" transform="translate(-38.842 -11.348)" fill="#ffe400"/>
  <path id="Path_162" data-name="Path 162" d="M162.167,25.22c1.934-1.055,2.391-2.988,1.23-4.992a.155.155,0,0,1-.035-.176.067.067,0,0,1,.105,0h0a3.558,3.558,0,0,1-.562,4.957c-.105.07-.176.141-.281.211a3.09,3.09,0,0,1-1.266.352,13.3,13.3,0,0,1-2.637.176c-.281-.035-.352.105-.352.352,0,1.055,0,2.109-.07,3.164v-3.3c0-.281.07-.387.387-.387a12.779,12.779,0,0,0,3.059-.176A.65.65,0,0,0,162.167,25.22Z" transform="translate(-102.648 -12.986)" fill="#ffe500"/>
  <path id="Path_163" data-name="Path 163" d="M181.382,27.22l-.105.07a9.882,9.882,0,0,1-2.039,0c-.141-.105-.07-.281-.07-.422V17.306a.809.809,0,0,1,.07-.492.5.5,0,0,1,.316-.035c1.617,0,3.2-.035,4.816.035.141,0,.352-.07.422.176a1.765,1.765,0,0,1-1.2.105c-1.266-.105-2.531-.035-3.8-.035-.352,0-.422.211-.422.492v8.789c0,.7,0,.7.738.7h.527c.492,0,.527-.035.527-.527V23.74c.035-.492.105-.6.6-.6h1.652a.591.591,0,0,1,.422.105c0,.246-.211.176-.316.176-.562,0-1.09.035-1.652,0-.316,0-.422.105-.387.387v2.848a2,2,0,0,1-.105.562Z" transform="translate(-116.168 -10.872)" fill="#ffda00"/>
  <path id="Path_164" data-name="Path 164" d="M314.3,17.419v-.246l.07-.07a23.232,23.232,0,0,1,3.129,0c.141.105.07.281.07.422v9.6c0,.141.07.316-.07.422a8.571,8.571,0,0,1-1.9,0c-.141-.141-.07-.316-.07-.457V20.513c0-.141.07-.316-.105-.457,0-.105-.035-.246.141-.352,0,.141.035.211.035.316v7c0,.352.105.457.457.422a6.4,6.4,0,0,1,1.16,0c.246,0,.352-.07.316-.316v-9.6c0-.246-.07-.352-.316-.316h-2.5a.3.3,0,0,0-.422.211Z" transform="translate(-203.805 -11.056)" fill="#ffdc00"/>
  <path id="Path_165" data-name="Path 165" d="M49.728,27.444v-7c0-.141.07-.316-.07-.457a.352.352,0,0,1,.176-.352v7.348c0,.316.105.422.422.422.387-.035.773-.035,1.2-.035.211,0,.316-.07.316-.316V17.425c0-.246-.105-.316-.316-.316h-2.5c-.281,0-.316.176-.387.316-.035-.035-.07-.07-.07-.105a.352.352,0,0,1,.07-.246l.07-.07a23.232,23.232,0,0,1,3.129,0c.141.105.07.281.07.422v9.6c0,.141.07.316-.07.422a8.567,8.567,0,0,1-1.9,0Z" transform="translate(-31.446 -10.991)" fill="#ffd800"/>
  <path id="Path_166" data-name="Path 166" d="M125.9,42.217l.738-2a.39.39,0,0,1,.422-.316h3.48c.211,0,.352.035.422.246l.738,2v.176a.619.619,0,0,1-.316-.457c-.105-.246-.176-.527-.281-.773-.105-.316-.141-.738-.387-.914s-.633,0-.949,0c-.879,0-1.793,0-2.672-.035-.176,0-.176.105-.246.211-.211.422-.316.914-.492,1.336-.07.246-.105.492-.422.6h0Z" transform="translate(-81.639 -25.869)" fill="#ffe100"/>
  <path id="Path_167" data-name="Path 167" d="M31.412,19.95a.559.559,0,0,0-.105.457v6.961h-.07a8.568,8.568,0,0,1-1.9,0c-.141-.105-.07-.281-.07-.422V17.383a.773.773,0,0,1,.07-.492,28.247,28.247,0,0,1,2.988-.035c.141.07.246.141.141.316a.418.418,0,0,0-.387-.141H29.689c-.316,0-.352.105-.352.387v9.492c0,.316.105.387.387.387a6.4,6.4,0,0,1,1.16,0c.281,0,.387-.07.387-.352V19.563A.352.352,0,0,1,31.412,19.95Z" transform="translate(-18.967 -10.915)" fill="#ffd101"/>
  <path id="Path_168" data-name="Path 168" d="M269.3,42.036c.211-.633.457-1.3.668-1.934a.313.313,0,0,1,.352-.211h3.551c.176,0,.316,0,.352.211.176.527.387,1.09.6,1.617a1.083,1.083,0,0,0,.176.422h0c-.211.246-.211,0-.246-.105-.176-.492-.387-.949-.527-1.477a.5.5,0,0,0-.527-.422h0c-1.055.035-2.074.035-3.129,0a.478.478,0,0,0-.527.422c-.141.527-.352,1.02-.527,1.547-.035.07-.035.141-.105.105A.193.193,0,0,1,269.3,42.036Z" transform="translate(-174.625 -25.864)" fill="#ffe100"/>
  <path id="Path_169" data-name="Path 169" d="M184.919,17.114a4.454,4.454,0,0,0-1.512-.176c-1.336-.035-2.672,0-4.008,0,.105-.141.281-.07.422-.07h4.5a3.234,3.234,0,0,1,3.164,2.953,3.607,3.607,0,0,1-.914,2.812.067.067,0,0,1-.105,0,.5.5,0,0,1,.035-.316,3.459,3.459,0,0,0,.6-2.742,2.686,2.686,0,0,0-1.9-2.215C185.1,17.254,184.919,17.289,184.919,17.114Z" transform="translate(-116.33 -10.926)" fill="#ffe500"/>
  <path id="Path_170" data-name="Path 170" d="M67.2,41.959c.211-.6.422-1.23.633-1.863a.292.292,0,0,1,.352-.211h3.621a.306.306,0,0,1,.316.176c.176.492.352.984.527,1.441a1.543,1.543,0,0,0,.246.773h0a.264.264,0,0,1-.246-.176c-.141-.562-.457-1.09-.6-1.652a.352.352,0,0,0-.422-.316c-1.055,0-2.109.035-3.164,0a.485.485,0,0,0-.562.422v.035c-.141.492-.316.949-.492,1.441-.035.07-.035.141-.105.141A.25.25,0,0,1,67.2,41.959Z" transform="translate(-43.575 -25.857)" fill="#ffe200"/>
  <path id="Path_171" data-name="Path 171" d="M38.27,17.3c.035-.105-.035-.176-.07-.246.035-.035.07-.035.07,0a.51.51,0,0,1,.246.352c.281,1.055.527,2.145.844,3.164.211.738.352,1.512.562,2.25.035.105,0,.246.176.211.035,0,.035-.105.07-.176s0-.281.176-.316a14.766,14.766,0,0,1,.492-2.074c.07,0,.141,0,.105.105,0,.422-.246.773-.246,1.23-.07.176-.105.387-.176.562-.105.105-.035.211-.07.316a10.069,10.069,0,0,0-.246.984h0c-.035.035-.07.141-.176.07a.7.7,0,0,1-.105-.387,1.688,1.688,0,0,0-.176-.6Z" transform="translate(-24.77 -11.04)" fill="#ffe200"/>
  <path id="Path_172" data-name="Path 172" d="M243.806,34.605a1.181,1.181,0,0,1,.738.563q1.213,1.635,2.32,3.375c-.035.246-.141.07-.211,0-.176-.246-.352-.492-.492-.738-.6-.914-1.2-1.828-1.863-2.672-.387-.527-.984-.457-1.547-.457-.246,0-.176.211-.176.352v3.129c0,.176.035.352-.176.492V34.781c0-.211.105-.246.281-.281A11.12,11.12,0,0,0,243.806,34.605Z" transform="translate(-157.182 -22.371)" fill="#ffe300"/>
  <path id="Path_173" data-name="Path 173" d="M243.964,22.1v-.105a2.848,2.848,0,0,0,.668-2.672,2.461,2.461,0,0,0-1.934-2l-.387-.105a2.753,2.753,0,0,0-1.2-.176H236.3c.07-.141.176-.07.246-.07,1.723,0,3.48-.035,5.2,0a3.008,3.008,0,0,1,3.059,2.391,3.125,3.125,0,0,1-.562,2.6A.432.432,0,0,1,243.964,22.1Z" transform="translate(-153.226 -10.991)" fill="#ffe500"/>
  <path id="Path_174" data-name="Path 174" d="M95.112,21.232c-.141.105-.07.281-.07.422V27.63l-.105.07a8.571,8.571,0,0,1-1.9,0c-.141-.07-.07-.246-.07-.387V17.822c0-.141-.07-.352.105-.422a.731.731,0,0,0-.035.387v9.457c0,.352.105.457.457.422a4.939,4.939,0,0,1,1.02,0c.352.035.457-.07.457-.457-.035-1.934,0-3.867,0-5.8,0-.07-.035-.176,0-.246S95.077,21.162,95.112,21.232Z" transform="translate(-60.272 -11.283)" fill="#ffd500"/>
  <path id="Path_175" data-name="Path 175" d="M103,23.769c-.422-.668-.844-1.3-1.23-1.969-.844-1.406-1.687-2.777-2.566-4.184.035-.105.035-.246.176-.07.668,1.09,1.336,2.18,2,3.234a27.107,27.107,0,0,0,1.723,2.707.186.186,0,0,1-.105.281Z" transform="translate(-64.325 -11.324)" fill="#ffe300"/>
  <path id="Path_176" data-name="Path 176" d="M190.422,33.187h.105a3.139,3.139,0,0,1-1.828.914,11.074,11.074,0,0,1-2.637.141c-.316,0-.422.07-.387.387.035.949,0,1.934,0,2.883,0,.141.07.316-.176.352v-3.34c0-.352.07-.492.457-.457.563.035,1.09,0,1.652,0,.141,0,.281.07.387-.105l.035-.035a3.917,3.917,0,0,1,.6-.07c.035,0,.07-.035.105-.035a1.248,1.248,0,0,0,.352-.07l.105-.035a.738.738,0,0,0,.387-.141,2.5,2.5,0,0,1,.492-.352C190.176,33.257,190.281,33.151,190.422,33.187Z" transform="translate(-120.286 -21.515)" fill="#ffe000"/>
  <path id="Path_177" data-name="Path 177" d="M268.705,21.946H268.6c.563-1.406,1.09-2.812,1.652-4.219.035-.07.035-.176.141-.141.035,0,.035.105.035.176l-1.547,4.078a.193.193,0,0,1-.176.105Z" transform="translate(-174.171 -11.4)" fill="#ffe000"/>
  <path id="Path_178" data-name="Path 178" d="M159.612,18h-.07c-.246,0-.316-.246-.492-.316l-.914-.492a1.185,1.185,0,0,0-.6-.176c-1.617-.141-3.2-.07-4.816-.07a1.758,1.758,0,0,1-.422-.07h.352c1.512,0,3.059-.035,4.605,0A2.834,2.834,0,0,1,159.612,18Z" transform="translate(-98.757 -10.93)" fill="#ffe300"/>
  <path id="Path_179" data-name="Path 179" d="M151.5,27.655V17.6h.035V27.655Z" transform="translate(-98.239 -11.413)" fill="#ffe800"/>
  <path id="Path_180" data-name="Path 180" d="M235.6,27.69V17.6h.035V27.69Z" transform="translate(-152.772 -11.413)" fill="#ffec00"/>
  <path id="Path_181" data-name="Path 181" d="M294.6,27.655V17.6h.035V27.69Z" transform="translate(-191.03 -11.413)" fill="#ffea00"/>
  <path id="Path_182" data-name="Path 182" d="M116.7,27.655V17.6h.035V27.655Z" transform="translate(-75.673 -11.413)" fill="#fff000"/>
  <path id="Path_183" data-name="Path 183" d="M263.7,45.81c.141-.105.492.07.492-.316a.067.067,0,0,1,.105-.035c.457.035.949-.176,1.3.246-.035.141-.141.141-.246.141Z" transform="translate(-170.994 -29.463)" fill="#ed1f25"/>
  <path id="Path_184" data-name="Path 184" d="M110,23.858l.105-.281V17.6c.141.07.07.176.07.246v5.8c0,.141.035.281-.07.387Z" transform="translate(-71.328 -11.413)" fill="#fe0"/>
  <path id="Path_185" data-name="Path 185" d="M45.705,20.78l-.105-.105c.246-.949.492-1.934.738-2.883.035-.176.035-.387.246-.492v.246a4.089,4.089,0,0,1-.141.633l-.246.984c-.07.176-.105.387-.176.562C45.881,20.077,45.916,20.464,45.705,20.78Z" transform="translate(-29.569 -11.218)" fill="#ffde00"/>
  <path id="Path_186" data-name="Path 186" d="M142.5,46.9h2.32A4.685,4.685,0,0,1,142.5,46.9Z" transform="translate(-92.403 -30.412)" fill="#ffe100"/>
  <path id="Path_187" data-name="Path 187" d="M32.629,16.945H29.5c.07-.07.141-.105.211-.07h2.707A.169.169,0,0,1,32.629,16.945Z" transform="translate(-19.129 -10.933)" fill="#fe0"/>
  <path id="Path_188" data-name="Path 188" d="M51.829,16.945H48.7c.07-.07.141-.105.211-.07h2.707A.169.169,0,0,1,51.829,16.945Z" transform="translate(-31.579 -10.933)" fill="#fe0"/>
  <path id="Path_189" data-name="Path 189" d="M317.629,16.96H314.5c.07-.105.176-.07.246-.07h2.6C317.453,16.89,317.559,16.854,317.629,16.96Z" transform="translate(-203.934 -10.948)" fill="#fe0"/>
  <path id="Path_190" data-name="Path 190" d="M298.218,17.035H295.3V17h2.953Z" transform="translate(-191.484 -11.023)" fill="#fe0"/>
  <path id="Path_191" data-name="Path 191" d="M255.6,46.9h2.285v.035H255.6Z" transform="translate(-165.741 -30.412)" fill="#ffec00"/>
  <path id="Path_192" data-name="Path 192" d="M274.3,16.9h2.109v.035H274.3Z" transform="translate(-177.867 -10.959)" fill="#fe0"/>
  <path id="Path_193" data-name="Path 193" d="M83.4,46.8h2.215A7.787,7.787,0,0,1,83.4,46.8Z" transform="translate(-54.08 -30.347)" fill="#ffec00"/>
  <path id="Path_194" data-name="Path 194" d="M122.045,46.8c-.281.176-.6.07-.879.07a5.1,5.1,0,0,1-1.266-.07Z" transform="translate(-77.748 -30.347)" fill="#ffec00"/>
  <path id="Path_195" data-name="Path 195" d="M133.139,17.035H131.1V17h2.039Z" transform="translate(-85.01 -11.023)" fill="#fe0"/>
  <path id="Path_196" data-name="Path 196" d="M61,46.8h2v.035H61Z" transform="translate(-39.555 -30.347)" fill="#ffec00"/>
  <path id="Path_197" data-name="Path 197" d="M286,46.8h2.039v.07H286Z" transform="translate(-185.454 -30.347)" fill="#ffec00"/>
  <ellipse id="Ellipse_3" data-name="Ellipse 3" cx="1.441" cy="0.035" rx="1.441" ry="0.035" transform="translate(92.039 16.453)" fill="#ffec00"/>
  <path id="Path_198" data-name="Path 198" d="M74.2,17.035h-2V17h2.039Z" transform="translate(-46.817 -11.023)" fill="#fe0"/>
  <path id="Path_199" data-name="Path 199" d="M110.3,46.8h2.039A6.61,6.61,0,0,1,110.3,46.8Z" transform="translate(-71.523 -30.347)" fill="#ffec00"/>
  <ellipse id="Ellipse_4" data-name="Ellipse 4" cx="1.371" cy="0.035" rx="1.371" ry="0.035" transform="translate(72.316 5.941)" fill="#fe0"/>
  <path id="Path_200" data-name="Path 200" d="M152.235,46.9h1.934v.035H152.2Z" transform="translate(-98.693 -30.412)" fill="#ffec00"/>
  <path id="Path_201" data-name="Path 201" d="M236.3,46.9h1.934v.035Z" transform="translate(-153.226 -30.412)" fill="#ffec00"/>
  <ellipse id="Ellipse_5" data-name="Ellipse 5" cx="1.336" cy="0.035" rx="1.336" ry="0.035" transform="translate(32.449 5.941)" fill="#fe0"/>
  <path id="Path_202" data-name="Path 202" d="M40.5,46.8h1.934A5.947,5.947,0,0,1,40.5,46.8Z" transform="translate(-26.262 -30.347)" fill="#ffec00"/>
  <ellipse id="Ellipse_6" data-name="Ellipse 6" cx="1.336" cy="0.035" rx="1.336" ry="0.035" transform="translate(78.468 5.941)" fill="#fe0"/>
  <path id="Path_203" data-name="Path 203" d="M306.6,46.9h1.863v.035H306.6Z" transform="translate(-198.812 -30.412)" fill="#ffec00"/>
  <path id="Path_204" data-name="Path 204" d="M179.4,46.8h2.039a4.982,4.982,0,0,1-2.039,0Z" transform="translate(-116.33 -30.347)" fill="#ffec00"/>
  <ellipse id="Ellipse_7" data-name="Ellipse 7" cx="1.266" cy="0.035" rx="1.266" ry="0.035" transform="translate(38.672 5.941)" fill="#fe0"/>
  <path id="Path_205" data-name="Path 205" d="M297.093,46.935H295.3V46.9h1.793Z" transform="translate(-191.484 -30.412)" fill="#ffec00"/>
  <path id="Path_206" data-name="Path 206" d="M52.2,46.8h1.9A4.324,4.324,0,0,1,52.2,46.8Z" transform="translate(-33.849 -30.347)" fill="#ffec00"/>
  <path id="Path_207" data-name="Path 207" d="M318,46.8h1.9v.07h-1.512C318.246,46.87,318.105,46.941,318,46.8Z" transform="translate(-206.204 -30.347)" fill="#ffec00"/>
  <path id="Path_208" data-name="Path 208" d="M29.5,46.8h1.9A4.324,4.324,0,0,1,29.5,46.8Z" transform="translate(-19.129 -30.347)" fill="#ffec00"/>
  <path id="Path_209" data-name="Path 209" d="M93.2,46.8h1.9A4.324,4.324,0,0,1,93.2,46.8Z" transform="translate(-60.435 -30.347)" fill="#ffec00"/>
  <path id="Path_210" data-name="Path 210" d="M43.959,32.8l-.176.316C43.783,32.976,43.713,32.8,43.959,32.8Z" transform="translate(-28.385 -21.269)" fill="#ffde00"/>
  <path id="Path_211" data-name="Path 211" d="M38.143,128.387h.105a4.373,4.373,0,0,1-1.477.387c-1.477.316-2.953.633-4.395.949a4.876,4.876,0,0,1-3.691-.6,5,5,0,0,1-.879-.844c-.07-.07-.176-.176-.035-.281a3.343,3.343,0,0,0,2.215,1.547c.105.105.316,0,.422.07h0a7.059,7.059,0,0,0,1.723,0h0c.387-.07.773-.141,1.16-.246,1.477-.387,2.953-.7,4.43-.984A.858.858,0,0,1,38.143,128.387Z" transform="translate(-17.964 -83)" fill="#0079af"/>
  <path id="Path_212" data-name="Path 212" d="M78.278,95.7l-.246.176c-1.652.387-3.3.738-4.957,1.125-1.055.246-2.109.457-3.164.668l-.211-.035a2.791,2.791,0,0,1,1.266-.387c.949-.211,1.934-.387,2.918-.633.668-.176,1.336-.281,2-.422a18.01,18.01,0,0,1,2.391-.492Z" transform="translate(-45.196 -62.056)" fill="#0079b0"/>
  <path id="Path_213" data-name="Path 213" d="M50.976,102.662a.193.193,0,0,0-.176-.105,8,8,0,0,1,1.582-.387c1.406-.316,2.848-.668,4.254-.984a.749.749,0,0,1,.668.035,1.6,1.6,0,0,1-.7.176c-.141.07-.316-.035-.457.07a23.873,23.873,0,0,1-2.742.633,14.414,14.414,0,0,1-1.687.352,2.58,2.58,0,0,0-.7.176l-.035.035Z" transform="translate(-32.941 -65.572)" fill="#007aaf"/>
  <path id="Path_214" data-name="Path 214" d="M37.123,132.6a3.568,3.568,0,0,1-1.723,0A14.075,14.075,0,0,0,37.123,132.6Z" transform="translate(-22.955 -85.983)" fill="#007bae"/>
  <path id="Path_215" data-name="Path 215" d="M41.36,131.9a2.236,2.236,0,0,1-1.16.246A4.57,4.57,0,0,1,41.36,131.9Z" transform="translate(-26.067 -85.529)" fill="#007aae"/>
  <path id="Path_216" data-name="Path 216" d="M111.938,116.7a1.083,1.083,0,0,1-.738.141,1.835,1.835,0,0,1,.738-.141Z" transform="translate(-72.106 -75.672)" fill="#007aae"/>
  <path id="Path_217" data-name="Path 217" d="M106.573,117.9a1.157,1.157,0,0,1-.773.176,1.473,1.473,0,0,1,.773-.176Z" transform="translate(-68.605 -76.448)" fill="#007aae"/>
  <path id="Path_218" data-name="Path 218" d="M51.6,105.162a1.012,1.012,0,0,1,.7-.176A1.878,1.878,0,0,1,51.6,105.162Z" transform="translate(-33.459 -68.072)" fill="#007aae"/>
  <path id="Path_219" data-name="Path 219" d="M56.622,128.905H56.2a.935.935,0,0,1,.422-.105Z" transform="translate(-36.442 -83.519)" fill="#007aae"/>
  <path id="Path_220" data-name="Path 220" d="M34.622,132.449c-.141,0-.316.07-.422-.07A.6.6,0,0,1,34.622,132.449Z" transform="translate(-22.177 -85.832)" fill="#007bae"/>
  <path id="Path_221" data-name="Path 221" d="M110.422,117.178c-.105.176-.281.07-.422.105a.485.485,0,0,1,.422-.105Z" transform="translate(-71.328 -75.976)" fill="#007aae"/>
  <path id="Path_222" data-name="Path 222" d="M66,102.038c.141-.141.316-.07.457-.07A.672.672,0,0,1,66,102.038Z" transform="translate(-42.797 -66.108)" fill="#007aae"/>
  <path id="Path_223" data-name="Path 223" d="M53.274,101a3.006,3.006,0,0,1-2.074,0,6.838,6.838,0,0,0,2.074,0Z" transform="translate(-33.2 -65.492)" fill="#007bae"/>
  <path id="Path_224" data-name="Path 224" d="M72.877,97.1a3.6,3.6,0,0,1-1.477.316A5.551,5.551,0,0,1,72.877,97.1Z" transform="translate(-46.299 -62.963)" fill="#007aaf"/>
  <path id="Path_225" data-name="Path 225" d="M61.438,99.9a1.083,1.083,0,0,1-.738.141A1.631,1.631,0,0,1,61.438,99.9Z" transform="translate(-39.36 -64.776)" fill="#007bae"/>
  <path id="Path_226" data-name="Path 226" d="M67.633,98.5c-.176.211-.387.176-.633.176a2.134,2.134,0,0,1,.633-.176Z" transform="translate(-43.445 -63.871)" fill="#007aae"/>
  <path id="Path_227" data-name="Path 227" d="M59.822,100.3c-.105.176-.281.07-.422.105a.935.935,0,0,1,.422-.105Z" transform="translate(-38.517 -65.038)" fill="#007bae"/>
  <path id="Path_228" data-name="Path 228" d="M76.022,96.837c-.105.141-.281.07-.422.07a.383.383,0,0,1,.422-.07Z" transform="translate(-49.022 -62.77)" fill="#007aaf"/>
  <path id="Path_229" data-name="Path 229" d="M70.622,97.978c-.105.176-.281.07-.422.105A.485.485,0,0,1,70.622,97.978Z" transform="translate(-45.52 -63.526)" fill="#007aaf"/>
  <path id="Path_230" data-name="Path 230" d="M77.976,122.774a21.072,21.072,0,0,0,2.145-.457c1.758-.352,3.551-.7,5.309-1.125a21.232,21.232,0,0,1,2.6-.492c.035.035.035.035.035.07s0,.035-.035.035h0c-.141.105-.316-.035-.422.105-1.652.352-3.34.738-4.992,1.09l-4.359.949h-.176C77.976,122.915,77.941,122.845,77.976,122.774Z" transform="translate(-50.554 -78.267)" fill="#0079b0"/>
  <path id="Path_231" data-name="Path 231" d="M62.308,126.6l.07.176c-2.145.492-4.324.949-6.469,1.406-.141.07-.316-.035-.422.07h0c-.141.105-.316-.035-.422.105h0a4.522,4.522,0,0,0-.668.141l-.316.105-.281-.035a5.868,5.868,0,0,1,1.9-.527c1.16-.246,2.285-.492,3.445-.773C60.2,127.022,61.253,126.811,62.308,126.6Z" transform="translate(-34.886 -82.092)" fill="#0079af"/>
  <path id="Path_232" data-name="Path 232" d="M107.7,120.116a3.762,3.762,0,0,1,1.512-.316A10.472,10.472,0,0,1,107.7,120.116Z" transform="translate(-69.837 -77.683)" fill="#007bae"/>
  <path id="Path_233" data-name="Path 233" d="M61.76,154.2a2.651,2.651,0,0,1-1.16.246,4.571,4.571,0,0,1,1.16-.246Z" transform="translate(-39.295 -99.989)" fill="#007bad"/>
  <path id="Path_234" data-name="Path 234" d="M67.738,152.9a1.1,1.1,0,0,1-.738.176A2.278,2.278,0,0,1,67.738,152.9Z" transform="translate(-43.445 -99.146)" fill="#007bad"/>
  <path id="Path_235" data-name="Path 235" d="M55.5,131.613a.9.9,0,0,1,.668-.141A1.427,1.427,0,0,1,55.5,131.613Z" transform="translate(-35.988 -85.243)" fill="#007aae"/>
  <path id="Path_236" data-name="Path 236" d="M93.8,147.1a.84.84,0,0,1-.7.141A2.274,2.274,0,0,1,93.8,147.1Z" transform="translate(-60.37 -95.385)" fill="#007aae"/>
  <path id="Path_237" data-name="Path 237" d="M59.627,154.878c-.141.176-.352.07-.527.07A.921.921,0,0,1,59.627,154.878Z" transform="translate(-38.323 -100.421)" fill="#007bad"/>
  <path id="Path_238" data-name="Path 238" d="M58.5,131.112c.105-.176.281-.07.422-.07a1.311,1.311,0,0,1-.422.07Z" transform="translate(-37.934 -84.953)" fill="#007aae"/>
  <path id="Path_239" data-name="Path 239" d="M57.4,131.305c.105-.176.281-.07.422-.105A.633.633,0,0,1,57.4,131.305Z" transform="translate(-37.22 -85.075)" fill="#007aae"/>
  <path id="Path_240" data-name="Path 240" d="M105.4,121.005c.105-.176.281-.07.422-.105a.485.485,0,0,1-.422.105Z" transform="translate(-68.346 -78.396)" fill="#007bae"/>
  <path id="Path_241" data-name="Path 241" d="M106.6,120.805V120.7h.422A.935.935,0,0,1,106.6,120.805Z" transform="translate(-69.124 -78.267)" fill="#007bae"/>
  <path id="Path_242" data-name="Path 242" d="M66.222,153.4c-.105.176-.281.07-.422.105a.749.749,0,0,1,.422-.105Z" transform="translate(-42.667 -99.469)" fill="#007bad"/>
  <path id="Path_243" data-name="Path 243" d="M71.4,155.8h.141a6.078,6.078,0,0,0-1.09,1.23.13.13,0,0,1-.07-.176A2.67,2.67,0,0,1,71.4,155.8Z" transform="translate(-45.628 -101.027)" fill="#007aaf"/>
  <path id="Path_244" data-name="Path 244" d="M76.6,153.637a1.2,1.2,0,0,1,.844-.246Z" transform="translate(-49.67 -99.461)" fill="#007aaf"/>
  <path id="Path_245" data-name="Path 245" d="M89.5,150.8a1.132,1.132,0,0,1,.809-.211A1.635,1.635,0,0,1,89.5,150.8Z" transform="translate(-58.035 -97.639)" fill="#007aae"/>
  <path id="Path_246" data-name="Path 246" d="M95.1,149.662a1.2,1.2,0,0,1,.773-.176l-.035.07Z" transform="translate(-61.667 -96.928)" fill="#007aae"/>
  <path id="Path_247" data-name="Path 247" d="M84.3,152.138c.105-.141.281-.07.422-.07A.577.577,0,0,1,84.3,152.138Z" transform="translate(-54.663 -98.595)" fill="#007aae"/>
  <path id="Path_248" data-name="Path 248" d="M82.2,152.638c.105-.141.281-.07.422-.07a1.758,1.758,0,0,1-.422.07Z" transform="translate(-53.302 -98.919)" fill="#007aae"/>
  <path id="Path_249" data-name="Path 249" d="M91.8,150.505c.105-.176.281-.07.422-.105A.837.837,0,0,1,91.8,150.505Z" transform="translate(-59.527 -97.525)" fill="#007aae"/>
  <path id="Path_250" data-name="Path 250" d="M78.9,153.305c.105-.176.281-.07.422-.105A.837.837,0,0,1,78.9,153.305Z" transform="translate(-51.162 -99.341)" fill="#007aaf"/>
  <path id="Path_251" data-name="Path 251" d="M56,155.4h1.055v.035H56Z" transform="translate(-36.313 -100.768)" fill="#0075b4"/>
  <path id="Path_252" data-name="Path 252" d="M200.772,99.985c.492,2.039,1.02,4.113,1.512,6.152.07.316,0,.352-.316.352-.914,0-1.828-.035-2.742,0-.316,0-.352-.035-.281-.352.527-2.039,1.02-4.078,1.512-6.082.035-.105.035-.246.07-.352.105-.105.176-.035.176.07C200.772,99.88,200.7,99.915,200.772,99.985Z" transform="translate(-128.983 -64.618)" fill="#fff"/>
  <path id="Path_253" data-name="Path 253" d="M203.746,99.679c-.141-.07,0-.316-.246-.316,0-.211.07-.246.176-.07A.383.383,0,0,1,203.746,99.679Z" transform="translate(-131.957 -64.312)" fill="#7b7c7f"/>
  <path id="Path_254" data-name="Path 254" d="M264.713,114.583v1.758a1.1,1.1,0,0,1-.246.738,2.777,2.777,0,0,1-3.164.809,1.5,1.5,0,0,1-.879-1.02,4.012,4.012,0,0,1-.035-2.039,2.356,2.356,0,0,1,1.512-1.687,16.9,16.9,0,0,1,2.285-.633c.563-.176.563-.176.563.387Z" transform="translate(-168.772 -72.888)" fill="#fff"/>
  <path id="Path_255" data-name="Path 255" d="M322.5,103.23h-2.18c-.246,0-.316-.07-.316-.316a6.061,6.061,0,0,1,.6-2.5,2.085,2.085,0,0,1,2.074-1.23,1.993,1.993,0,0,1,1.9,1.406,9.018,9.018,0,0,1,.457,2.355c.035.246-.105.246-.316.246Z" transform="translate(-207.501 -64.312)" fill="#fff"/>
  <path id="Path_256" data-name="Path 256" d="M187.494,145.147a1.547,1.547,0,1,1-1.547-1.547A1.547,1.547,0,0,1,187.494,145.147Z" transform="translate(-119.572 -93.116)" fill="#fefefe"/>
  <path id="Path_257" data-name="Path 257" d="M251.4,144.3c.105-.246-.246-.738.422-.7s1.055.211,1.055.7-.352.668-1.09.7C251.152,145.038,251.539,144.546,251.4,144.3Z" transform="translate(-163.016 -93.113)" fill="#fafafb"/>
  <path id="Path_258" data-name="Path 258" d="M156.7,144.4c.141-.281-.246-.738.422-.7.738.035,1.055.211,1.09.668s-.352.668-1.09.7S156.874,144.575,156.7,144.4Z" transform="translate(-101.609 -93.177)" fill="#fbfcfc"/>
  <path id="Path_259" data-name="Path 259" d="M328.491,144.4c0-.7,0-.7.457-.7.7,0,1.02.211,1.02.668s-.316.668-1.09.7C328.245,145.106,328.6,144.614,328.491,144.4Z" transform="translate(-213.004 -93.181)" fill="#fafafa"/>
  <path id="Path_260" data-name="Path 260" d="M149.568,144.438c0-.738,0-.738.492-.738.7,0,1.02.211,1.02.7s-.316.668-1.125.7C149.286,145.141,149.673,144.649,149.568,144.438Z" transform="translate(-96.974 -93.181)" fill="#fbfbfb"/>
  <path id="Path_261" data-name="Path 261" d="M244.2,144.335c.105-.316-.211-.773.457-.738.738.07,1.09.211,1.09.7s-.316.668-1.125.7C243.919,145.073,244.376,144.546,244.2,144.335Z" transform="translate(-158.349 -93.112)" fill="#fbfbfb"/>
  <path id="Path_262" data-name="Path 262" d="M321.271,145.787H319.9a15.825,15.825,0,0,1,.7-1.687A11.914,11.914,0,0,1,321.271,145.787Z" transform="translate(-207.436 -93.44)" fill="#f6f6f7"/>
  <path id="Path_263" data-name="Path 263" d="M303.222,34.152A5.448,5.448,0,0,1,302.8,32.5,12.633,12.633,0,0,1,303.222,34.152Z" transform="translate(-196.347 -21.074)" fill="#fd0"/>
  <path id="Path_264" data-name="Path 264" d="M304.516,39.5a2.841,2.841,0,0,1-.316-1.3A4.149,4.149,0,0,1,304.516,39.5Z" transform="translate(-197.255 -24.77)" fill="#ffde00"/>
  <path id="Path_265" data-name="Path 265" d="M43.791,34.184a1.589,1.589,0,0,1,.246-.984A3.118,3.118,0,0,1,43.791,34.184Z" transform="translate(-28.392 -21.528)" fill="#ffde00"/>
  <path id="Path_266" data-name="Path 266" d="M48,18.733a1.287,1.287,0,0,1,.141-.633v.105A.8.8,0,0,1,48,18.733Z" transform="translate(-31.124 -11.737)" fill="#fd0"/>
  <path id="Path_267" data-name="Path 267" d="M42.6,33.5a.759.759,0,0,1,.176.6A1.185,1.185,0,0,1,42.6,33.5Z" transform="translate(-27.624 -21.723)" fill="#fd0"/>
  <path id="Path_268" data-name="Path 268" d="M44.694,31.262a.773.773,0,0,1,.176-.562.886.886,0,0,1-.176.563Z" transform="translate(-28.98 -19.907)" fill="#ffde00"/>
  <path id="Path_269" data-name="Path 269" d="M46.783,23.262a.647.647,0,0,1,.176-.562A.826.826,0,0,1,46.783,23.262Z" transform="translate(-30.33 -14.72)" fill="#ffde00"/>
  <path id="Path_270" data-name="Path 270" d="M43.3,36.17l.176-.07c0,.105.035.246-.105.246C43.3,36.346,43.3,36.241,43.3,36.17Z" transform="translate(-28.077 -23.409)" fill="#ffde00"/>
  <path id="Path_271" data-name="Path 271" d="M243.752,22.335c.457,0,.914-.035,1.406,0a1.139,1.139,0,0,1,1.16,1.125v.07a1.181,1.181,0,0,1-1.02,1.3h-.07a26.1,26.1,0,0,1-2.883.07c-.211,0-.246-.105-.246-.281V22.581c0-.211.105-.281.316-.281h1.336Z" transform="translate(-156.987 -14.46)" fill="#ffe300"/>
  <path id="Path_272" data-name="Path 272" d="M131.669,24.6c.352.984.738,1.934,1.09,2.918.281.773.281.773-.562.773h-1.652c-.176,0-.316,0-.211-.246.422-1.125.844-2.285,1.266-3.41Z" transform="translate(-84.49 -15.952)" fill="#ffe000"/>
  <path id="Path_273" data-name="Path 273" d="M72.669,24.6l1.16,3.059c.246.6.211.6-.422.6H71.544c-.176,0-.316,0-.211-.246.422-1.125.844-2.285,1.266-3.41Z" transform="translate(-46.232 -15.952)" fill="#ffe200"/>
  <path id="Path_274" data-name="Path 274" d="M89.1,44.5a.352.352,0,0,1,.176.422A2.151,2.151,0,0,0,89.1,44.5Z" transform="translate(-57.776 -28.856)" fill="#ffde00"/>
  <path id="Path_275" data-name="Path 275" d="M274.834,24.6c.352.914.7,1.863,1.055,2.777s.316.879-.6.879h-1.547c-.176,0-.316,0-.211-.246.422-1.125.844-2.285,1.266-3.41Z" transform="translate(-177.346 -15.952)" fill="#ffe200"/>
  <path id="Path_276" data-name="Path 276" d="M285.165,45.522a.429.429,0,0,1-.176-.422A.9.9,0,0,1,285.165,45.522Z" transform="translate(-184.794 -29.245)" fill="#fd0"/>
  <path id="Path_277" data-name="Path 277" d="M158,23.777v-1.16c0-.246.07-.316.316-.316.7.035,1.406.035,2.074.07a1.385,1.385,0,0,1,.141,2.742,12.445,12.445,0,0,1-2.285.105c-.211,0-.211-.105-.211-.281C158,24.55,158,24.163,158,23.777Z" transform="translate(-102.453 -14.46)" fill="#ffe300"/>
  <path id="Path_278" data-name="Path 278" d="M171.4,19.2c.246,0,.316.246.492.316v.176Z" transform="translate(-111.143 -12.45)" fill="#fd0"/>
  <path id="Path_279" data-name="Path 279" d="M186.05,23.185l-.492.316a2.757,2.757,0,0,1-.492.176h0c-.105.105-.316,0-.422.07h0c-.246.141-.492-.035-.738.105h-2.215c-.246,0-.316.105-.316.352v3.164c0,.281-.07.387-.352.387-.457-.035-.949,0-1.406,0-.246,0-.316-.07-.316-.316V17.806c0-.352.176-.316.422-.316,1.687,0,3.41-.035,5.1.07,2.426.7,3.164,3.059,1.687,5.238a2.422,2.422,0,0,1-.457.387Z" transform="translate(-116.265 -11.337)" fill="#ed1f25"/>
  <path id="Path_280" data-name="Path 280" d="M198.5,32.987l.422-.387-.105.246C198.746,32.881,198.676,33.022,198.5,32.987Z" transform="translate(-128.715 -21.139)" fill="#fd0"/>
  <path id="Path_281" data-name="Path 281" d="M192.5,35.305a2.675,2.675,0,0,1,.738-.105C192.992,35.411,192.746,35.305,192.5,35.305Z" transform="translate(-124.825 -22.825)" fill="#fd0"/>
  <path id="Path_282" data-name="Path 282" d="M195.7,34.776a1.181,1.181,0,0,1,.492-.176A.489.489,0,0,1,195.7,34.776Z" transform="translate(-126.9 -22.436)" fill="#fd0"/>
  <path id="Path_283" data-name="Path 283" d="M194.6,35.149a.6.6,0,0,1,.422-.07C194.881,35.219,194.741,35.149,194.6,35.149Z" transform="translate(-126.186 -22.739)" fill="#fd0"/>
  <path id="Path_284" data-name="Path 284" d="M244.367,22.835a6.82,6.82,0,0,1,1.441.07c.492.141.738.492.7,1.16a.872.872,0,0,1-.879.879c-.844.035-1.652.035-2.5.105-.316,0-.387-.105-.352-.387.035-.492,0-1.02,0-1.512,0-.246.07-.352.316-.352A7.284,7.284,0,0,0,244.367,22.835Z" transform="translate(-157.426 -14.784)" fill="#fd0"/>
  <path id="Path_285" data-name="Path 285" d="M133.314,28.888h-1.863c-.281,0-.176-.176-.141-.316.316-.879.6-1.723.914-2.672C132.611,26.955,133.033,27.869,133.314,28.888Z" transform="translate(-85.115 -16.795)" fill="#fd0"/>
  <path id="Path_286" data-name="Path 286" d="M73.118,26.2c.211.562.457,1.055.668,1.617l.422,1.055c.07.176.035.246-.141.246H72.309c-.352,0-.176-.281-.105-.387a16.359,16.359,0,0,0,.7-1.828A2.334,2.334,0,0,1,73.118,26.2Z" transform="translate(-46.751 -16.989)" fill="#fd0"/>
  <path id="Path_287" data-name="Path 287" d="M275.3,25.9c.211.6.457,1.125.6,1.687a9.428,9.428,0,0,1,.422,1.055c.035.211,0,.246-.176.246h-1.652c-.211,0-.281-.07-.176-.281C274.627,27.728,274.943,26.884,275.3,25.9Z" transform="translate(-177.842 -16.795)" fill="#fd0"/>
  <path id="Path_288" data-name="Path 288" d="M159.625,22.835a7.643,7.643,0,0,1,1.266.07,1.055,1.055,0,0,1,.809.7c.176.738-.035,1.336-.6,1.512a7.012,7.012,0,0,1-2.426.141c-.141,0-.176-.141-.176-.246V23.046c0-.211.105-.246.281-.246A6.23,6.23,0,0,0,159.625,22.835Z" transform="translate(-102.778 -14.784)" fill="#fd0"/>
  <path id="Path_289" data-name="Path 289" d="M186.471,22.235c.352.035.7.035,1.055.07a1.406,1.406,0,0,1,.035,2.777,15.057,15.057,0,0,1-2.18.07c-.211,0-.281-.105-.281-.316v-2.32c0-.246.105-.316.352-.316C185.8,22.235,186.155,22.235,186.471,22.235Z" transform="translate(-120.026 -14.395)" fill="#ffe200"/>
  <path id="Path_290" data-name="Path 290" d="M185.9,24.058v-.914c0-.141,0-.316.211-.281a11.033,11.033,0,0,1,2.145.07,1.107,1.107,0,0,1,.879.773,1.227,1.227,0,0,1-.387,1.3,2.148,2.148,0,0,1-1.055.281c-.492.035-.984,0-1.477.035-.211,0-.316-.07-.281-.316S185.9,24.409,185.9,24.058Z" transform="translate(-120.545 -14.812)" fill="#fd0"/>
</svg>
